<svg width="227" height="110" viewBox="0 0 227 110" fill="none" xmlns="http://www.w3.org/2000/svg">
<mask id="path-1-outside-1_356_4712" maskUnits="userSpaceOnUse" x="1" y="39" width="224" height="65" fill="black">
<rect fill="white" x="1" y="39" width="224" height="65"/>
<path d="M37.6127 41.4518H48.3348V81.9577C48.3348 88.5385 46.1507 93.5592 41.7824 97.0198C37.4708 100.48 32.2516 102.211 26.1246 102.211C21.5294 102.211 17.4731 101.331 13.9558 99.5727C10.4952 97.814 7.82888 95.2327 5.95675 91.8289L15.3174 86.4678C17.4731 90.439 21.189 92.4246 26.465 92.4246C29.9256 92.4246 32.6487 91.5169 34.6343 89.7015C36.6199 87.8861 37.6127 85.3048 37.6127 81.9577V77.3625C34.379 81.674 29.8405 83.8298 23.9972 83.8298C17.9837 83.8298 12.9347 81.7308 8.85004 77.5327C4.82213 73.2778 2.80818 68.1153 2.80818 62.0451C2.80818 56.0316 4.8505 50.8975 8.93513 46.6426C13.0198 42.3878 18.0405 40.2604 23.9972 40.2604C29.8405 40.2604 34.379 42.4162 37.6127 46.7277V41.4518ZM17.1044 70.4697C19.3736 72.6254 22.2386 73.7033 25.6991 73.7033C29.1597 73.7033 31.9963 72.6254 34.2088 70.4697C36.478 68.2571 37.6127 65.449 37.6127 62.0451C37.6127 58.698 36.478 55.9465 34.2088 53.7907C31.9963 51.5782 29.1597 50.472 25.6991 50.472C22.2386 50.472 19.3736 51.5782 17.1044 53.7907C14.8919 55.9465 13.7856 58.698 13.7856 62.0451C13.7856 65.449 14.8919 68.2571 17.1044 70.4697ZM67.1391 48.7701C68.1603 46.047 69.8339 44.0046 72.1598 42.6431C74.5425 41.2816 77.1805 40.6008 80.0738 40.6008V52.8547C76.7267 52.4576 73.7199 53.1383 71.0536 54.897C68.4439 56.6557 67.1391 59.5773 67.1391 63.6619V84H56.1617V41.4518H67.1391V48.7701ZM119.039 78.724C114.67 83.0356 109.338 85.1914 103.041 85.1914C96.7434 85.1914 91.4107 83.0356 87.0424 78.724C82.7308 74.3557 80.5751 69.023 80.5751 62.7259C80.5751 56.4287 82.7308 51.1244 87.0424 46.8128C91.4107 42.4445 96.7434 40.2604 103.041 40.2604C109.338 40.2604 114.67 42.4445 119.039 46.8128C123.407 51.1244 125.591 56.4287 125.591 62.7259C125.591 69.023 123.407 74.3557 119.039 78.724ZM94.7862 71.1504C96.9987 73.3629 99.7501 74.4692 103.041 74.4692C106.331 74.4692 109.082 73.3629 111.295 71.1504C113.507 68.9379 114.614 66.1297 114.614 62.7259C114.614 59.322 113.507 56.5138 111.295 54.3013C109.082 52.0888 106.331 50.9826 103.041 50.9826C99.7501 50.9826 96.9987 52.0888 94.7862 54.3013C92.6304 56.5138 91.5525 59.322 91.5525 62.7259C91.5525 66.1297 92.6304 68.9379 94.7862 71.1504ZM159.268 41.4518H170.245V84H159.268V79.2346C156.602 83.2058 152.375 85.1914 146.589 85.1914C141.937 85.1914 138.079 83.6312 135.016 80.511C132.009 77.3908 130.505 73.0793 130.505 67.5764V41.4518H141.483V66.2148C141.483 69.0514 142.249 71.2355 143.78 72.7673C145.312 74.2423 147.355 74.9798 149.907 74.9798C152.744 74.9798 155.013 74.1004 156.715 72.3418C158.417 70.5831 159.268 67.9451 159.268 64.4278V41.4518ZM202.935 40.2604C208.665 40.2604 213.544 42.4445 217.572 46.8128C221.656 51.1244 223.699 56.4287 223.699 62.7259C223.699 69.023 221.656 74.3557 217.572 78.724C213.544 83.0356 208.665 85.1914 202.935 85.1914C196.978 85.1914 192.383 83.1207 189.15 78.9793V101.019H178.172V41.4518H189.15V46.4724C192.383 42.3311 196.978 40.2604 202.935 40.2604ZM192.468 71.4057C194.681 73.6182 197.489 74.7245 200.893 74.7245C204.297 74.7245 207.105 73.6182 209.317 71.4057C211.587 69.1365 212.721 66.2432 212.721 62.7259C212.721 59.2086 211.587 56.3436 209.317 54.1311C207.105 51.8619 204.297 50.7273 200.893 50.7273C197.489 50.7273 194.681 51.8619 192.468 54.1311C190.256 56.3436 189.15 59.2086 189.15 62.7259C189.15 66.2432 190.256 69.1365 192.468 71.4057Z"/>
</mask>
<path d="M37.6127 41.4518V40.4518H36.6127V41.4518H37.6127ZM48.3348 41.4518H49.3348V40.4518H48.3348V41.4518ZM41.7824 97.0198L41.1614 96.2359L41.1564 96.2399L41.7824 97.0198ZM13.9558 99.5727L13.5028 100.464L13.5086 100.467L13.9558 99.5727ZM5.95675 91.8289L5.45977 90.9611L4.60688 91.4496L5.08054 92.3108L5.95675 91.8289ZM15.3174 86.4678L16.1962 85.9907L15.7081 85.0916L14.8204 85.6L15.3174 86.4678ZM34.6343 89.7015L33.9595 88.9634V88.9634L34.6343 89.7015ZM37.6127 77.3625H38.6127V74.3625L36.8127 76.7625L37.6127 77.3625ZM8.85003 77.5327L8.12376 78.2202L8.13331 78.23L8.85003 77.5327ZM8.93513 46.6426L9.65652 47.3352L8.93513 46.6426ZM37.6127 46.7277L36.8127 47.3277L38.6127 49.7277V46.7277H37.6127ZM17.1044 70.4697L16.3973 71.1768L16.4064 71.1858L16.4156 71.1947L17.1044 70.4697ZM34.2088 70.4697L34.9067 71.1859L34.9069 71.1857L34.2088 70.4697ZM34.2088 53.7907L33.5017 54.4979L33.5107 54.5069L33.52 54.5157L34.2088 53.7907ZM17.1044 53.7907L17.8023 54.507L17.8025 54.5067L17.1044 53.7907ZM37.6127 42.4518H48.3348V40.4518H37.6127V42.4518ZM47.3348 41.4518V81.9577H49.3348V41.4518H47.3348ZM47.3348 81.9577C47.3348 88.2948 45.2457 93.0003 41.1614 96.2359L42.4033 97.8036C47.0556 94.118 49.3348 88.7821 49.3348 81.9577H47.3348ZM41.1564 96.2399C37.0418 99.5424 32.0501 101.211 26.1246 101.211V103.211C32.453 103.211 37.8999 101.418 42.4083 97.7996L41.1564 96.2399ZM26.1246 101.211C21.6586 101.211 17.7599 100.357 14.403 98.6782L13.5086 100.467C17.1864 102.306 21.4003 103.211 26.1246 103.211V101.211ZM14.4089 98.6812C11.1274 97.0135 8.60842 94.5751 6.83297 91.347L5.08054 92.3108C7.04933 95.8904 9.86307 98.6145 13.5028 100.464L14.4089 98.6812ZM6.45374 92.6966L15.8144 87.3356L14.8204 85.6L5.45977 90.9611L6.45374 92.6966ZM14.4385 86.9449C16.8019 91.2986 20.8964 93.4246 26.465 93.4246V91.4246C21.4816 91.4246 18.1444 89.5794 16.1962 85.9907L14.4385 86.9449ZM26.465 93.4246C30.1015 93.4246 33.0911 92.4673 35.309 90.4395L33.9595 88.9634C32.2063 90.5664 29.7497 91.4246 26.465 91.4246V93.4246ZM35.309 90.4395C37.5505 88.3901 38.6127 85.512 38.6127 81.9577H36.6127C36.6127 85.0976 35.6892 87.382 33.9595 88.9634L35.309 90.4395ZM38.6127 81.9577V77.3625H36.6127V81.9577H38.6127ZM36.8127 76.7625C33.7855 80.7986 29.5565 82.8298 23.9972 82.8298V84.8298C30.1245 84.8298 34.9724 82.5494 38.4127 77.9625L36.8127 76.7625ZM23.9972 82.8298C18.2456 82.8298 13.4576 80.8342 9.56676 76.8353L8.13331 78.23C12.4118 82.6273 17.7219 84.8298 23.9972 84.8298V82.8298ZM9.57624 76.8452C5.73105 72.7834 3.80818 67.8698 3.80818 62.0451H1.80818C1.80818 68.3608 3.91322 73.7723 8.12383 78.2201L9.57624 76.8452ZM3.80818 62.0451C3.80818 56.2841 5.75453 51.3997 9.65652 47.3352L8.21374 45.9501C3.94647 50.3952 1.80818 55.7791 1.80818 62.0451H3.80818ZM9.65652 47.3352C13.5505 43.279 18.3097 41.2604 23.9972 41.2604V39.2604C17.7712 39.2604 12.4891 41.4967 8.21374 45.9501L9.65652 47.3352ZM23.9972 41.2604C29.5565 41.2604 33.7855 43.2916 36.8127 47.3277L38.4127 46.1277C34.9724 41.5408 30.1245 39.2604 23.9972 39.2604V41.2604ZM38.6127 46.7277V41.4518H36.6127V46.7277H38.6127ZM16.4156 71.1947C18.8911 73.5463 22.0117 74.7033 25.6991 74.7033V72.7033C22.4654 72.7033 19.8562 71.7046 17.7931 69.7447L16.4156 71.1947ZM25.6991 74.7033C29.3863 74.7033 32.4843 73.5461 34.9067 71.1859L33.5109 69.7534C31.5082 71.7048 28.9331 72.7033 25.6991 72.7033V74.7033ZM34.9069 71.1857C37.3845 68.77 38.6127 65.6964 38.6127 62.0451H36.6127C36.6127 65.2015 35.5716 67.7443 33.5107 69.7537L34.9069 71.1857ZM38.6127 62.0451C38.6127 58.4451 37.3804 55.4245 34.8975 53.0657L33.52 54.5157C35.5757 56.4686 36.6127 58.9509 36.6127 62.0451H38.6127ZM34.9159 53.0836C32.4951 50.6629 29.3941 49.472 25.6991 49.472V51.472C28.9254 51.472 31.4974 52.4936 33.5017 54.4979L34.9159 53.0836ZM25.6991 49.472C22.004 49.472 18.8803 50.6626 16.4063 53.0747L17.8025 54.5067C19.867 52.4939 22.4731 51.472 25.6991 51.472V49.472ZM16.4065 53.0745C13.9837 55.4353 12.7856 58.4532 12.7856 62.0451H14.7856C14.7856 58.9427 15.8001 56.4578 17.8023 54.507L16.4065 53.0745ZM12.7856 62.0451C12.7856 65.6885 13.9798 68.7593 16.3973 71.1768L17.8115 69.7626C15.8039 67.755 14.7856 65.2094 14.7856 62.0451H12.7856ZM67.1391 48.7701H66.1391L68.0755 49.1212L67.1391 48.7701ZM72.1598 42.6431L71.6637 41.7748L71.6546 41.7801L72.1598 42.6431ZM80.0738 40.6008H81.0738V39.6008H80.0738V40.6008ZM80.0738 52.8547L79.956 53.8477L81.0738 53.9803V52.8547H80.0738ZM71.0536 54.897L70.503 54.0622L70.4947 54.0677L71.0536 54.897ZM67.1391 84V85H68.1391V84H67.1391ZM56.1617 84H55.1617V85H56.1617V84ZM56.1617 41.4518V40.4518H55.1617V41.4518H56.1617ZM67.1391 41.4518H68.1391V40.4518H67.1391V41.4518ZM68.0755 49.1212C69.0228 46.5949 70.5535 44.7421 72.665 43.5061L71.6546 41.7801C69.1143 43.2671 67.2978 45.499 66.2028 48.4189L68.0755 49.1212ZM72.656 43.5113C74.8793 42.2409 77.3447 41.6008 80.0738 41.6008V39.6008C77.0163 39.6008 74.2058 40.3222 71.6637 41.7749L72.656 43.5113ZM79.0738 40.6008V52.8547H81.0738V40.6008H79.0738ZM80.1916 51.8616C76.624 51.4384 73.378 52.166 70.503 54.0622L71.6042 55.7318C74.0619 54.1107 76.8293 53.4768 79.956 53.8477L80.1916 51.8616ZM70.4947 54.0677C67.5287 56.0666 66.1391 59.3554 66.1391 63.6619H68.1391C68.1391 59.7992 69.3592 57.2447 71.6124 55.7263L70.4947 54.0677ZM66.1391 63.6619V84H68.1391V63.6619H66.1391ZM67.1391 83H56.1617V85H67.1391V83ZM57.1617 84V41.4518H55.1617V84H57.1617ZM56.1617 42.4518H67.1391V40.4518H56.1617V42.4518ZM66.1391 41.4518V48.7701H68.1391V41.4518H66.1391ZM119.039 78.724L119.741 79.4357L119.746 79.4311L119.039 78.724ZM87.0424 78.724L86.3306 79.4265L86.3399 79.4357L87.0424 78.724ZM87.0424 46.8128L87.7495 47.5199L87.0424 46.8128ZM119.039 46.8128L118.332 47.52L118.336 47.5245L119.039 46.8128ZM94.7862 71.1504L94.0699 71.8484L94.0791 71.8575L94.7862 71.1504ZM94.7862 54.3013L94.079 53.5942L94.07 53.6035L94.7862 54.3013ZM118.336 78.0123C114.16 82.1339 109.082 84.1914 103.041 84.1914V86.1914C109.593 86.1914 115.18 83.9373 119.741 79.4357L118.336 78.0123ZM103.041 84.1914C96.9987 84.1914 91.9206 82.1339 87.7449 78.0123L86.3399 79.4357C90.9007 83.9373 96.4881 86.1914 103.041 86.1914V84.1914ZM87.7541 78.0215C83.6326 73.8458 81.5751 68.7677 81.5751 62.7259H79.5751C79.5751 69.2783 81.8291 74.8657 86.3307 79.4265L87.7541 78.0215ZM81.5751 62.7259C81.5751 56.6842 83.6322 51.6372 87.7495 47.5199L86.3353 46.1057C81.8294 50.6116 79.5751 56.1732 79.5751 62.7259H81.5751ZM87.7495 47.5199C91.9262 43.3432 97.0029 41.2604 103.041 41.2604V39.2604C96.4839 39.2604 90.8951 41.5459 86.3353 46.1057L87.7495 47.5199ZM103.041 41.2604C109.078 41.2604 114.155 43.3432 118.332 47.5199L119.746 46.1057C115.186 41.5459 109.597 39.2604 103.041 39.2604V41.2604ZM118.336 47.5245C122.509 51.6428 124.591 56.6884 124.591 62.7259H126.591C126.591 56.169 124.305 50.606 119.741 46.1011L118.336 47.5245ZM124.591 62.7259C124.591 68.7635 122.508 73.8402 118.332 78.0169L119.746 79.4311C124.306 74.8713 126.591 69.2825 126.591 62.7259H124.591ZM94.0791 71.8575C96.4896 74.2681 99.5002 75.4692 103.041 75.4692V73.4692C100 73.4692 97.5078 72.4578 95.4933 70.4433L94.0791 71.8575ZM103.041 75.4692C106.581 75.4692 109.591 74.2681 112.002 71.8575L110.588 70.4433C108.573 72.4578 106.081 73.4692 103.041 73.4692V75.4692ZM112.002 71.8575C114.419 69.4401 115.614 66.3693 115.614 62.7259H113.614C113.614 65.8902 112.595 68.4358 110.588 70.4433L112.002 71.8575ZM115.614 62.7259C115.614 59.0825 114.419 56.0117 112.002 53.5942L110.588 55.0084C112.595 57.016 113.614 59.5616 113.614 62.7259H115.614ZM112.002 53.5942C109.591 51.1837 106.581 49.9826 103.041 49.9826V51.9826C106.081 51.9826 108.573 52.994 110.588 55.0084L112.002 53.5942ZM103.041 49.9826C99.5002 49.9826 96.4896 51.1837 94.0791 53.5942L95.4933 55.0084C97.5078 52.994 100 51.9826 103.041 51.9826V49.9826ZM94.07 53.6035C91.7129 56.0225 90.5525 59.0904 90.5525 62.7259H92.5525C92.5525 59.5537 93.5479 57.0051 95.5024 54.9992L94.07 53.6035ZM90.5525 62.7259C90.5525 66.3614 91.7129 69.4292 94.07 71.8483L95.5024 70.4526C93.5479 68.4466 92.5525 65.8981 92.5525 62.7259H90.5525ZM159.268 41.4518V40.4518H158.268V41.4518H159.268ZM170.245 41.4518H171.245V40.4518H170.245V41.4518ZM170.245 84V85H171.245V84H170.245ZM159.268 84H158.268V85H159.268V84ZM159.268 79.2346H160.268V75.9513L158.438 78.6772L159.268 79.2346ZM135.016 80.511L134.295 81.205L134.302 81.2116L135.016 80.511ZM130.505 41.4518V40.4518H129.505V41.4518H130.505ZM141.483 41.4518H142.483V40.4518H141.483V41.4518ZM143.78 72.7673L143.073 73.4744L143.08 73.481L143.087 73.4876L143.78 72.7673ZM156.715 72.3418L155.997 71.6464L156.715 72.3418ZM159.268 42.4518H170.245V40.4518H159.268V42.4518ZM169.245 41.4518V84H171.245V41.4518H169.245ZM170.245 83H159.268V85H170.245V83ZM160.268 84V79.2346H158.268V84H160.268ZM158.438 78.6772C155.998 82.3113 152.122 84.1914 146.589 84.1914V86.1914C152.628 86.1914 157.206 84.1002 160.098 79.792L158.438 78.6772ZM146.589 84.1914C142.186 84.1914 138.592 82.726 135.729 79.8105L134.302 81.2116C137.566 84.5365 141.687 86.1914 146.589 86.1914V84.1914ZM135.736 79.8172C132.953 76.93 131.505 72.8935 131.505 67.5764H129.505C129.505 73.2651 131.064 77.8517 134.295 81.2049L135.736 79.8172ZM131.505 67.5764V41.4518H129.505V67.5764H131.505ZM130.505 42.4518H141.483V40.4518H130.505V42.4518ZM140.483 41.4518V66.2148H142.483V41.4518H140.483ZM140.483 66.2148C140.483 69.2313 141.301 71.7023 143.073 73.4744L144.488 72.0602C143.196 70.7687 142.483 68.8715 142.483 66.2148H140.483ZM143.087 73.4876C144.841 75.177 147.151 75.9798 149.907 75.9798V73.9798C147.558 73.9798 145.783 73.3076 144.474 72.0469L143.087 73.4876ZM149.907 75.9798C152.968 75.9798 155.513 75.0218 157.434 73.0372L155.997 71.6464C154.513 73.1791 152.52 73.9798 149.907 73.9798V75.9798ZM157.434 73.0372C159.382 71.0239 160.268 68.0912 160.268 64.4278H158.268C158.268 67.799 157.452 70.1423 155.997 71.6464L157.434 73.0372ZM160.268 64.4278V41.4518H158.268V64.4278H160.268ZM217.572 46.8128L216.837 47.4908L216.846 47.5006L217.572 46.8128ZM217.572 78.724L216.841 78.041L216.841 78.0414L217.572 78.724ZM189.15 78.9793L189.938 78.3639L188.15 76.0737V78.9793H189.15ZM189.15 101.019V102.019H190.15V101.019H189.15ZM178.172 101.019H177.172V102.019H178.172V101.019ZM178.172 41.4518V40.4518H177.172V41.4518H178.172ZM189.15 41.4518H190.15V40.4518H189.15V41.4518ZM189.15 46.4724H188.15V49.378L189.938 47.0879L189.15 46.4724ZM192.468 71.4057L191.752 72.1039L191.761 72.1128L192.468 71.4057ZM209.317 71.4057L208.61 70.6986L209.317 71.4057ZM209.317 54.1311L208.601 54.8292L208.61 54.8383L208.619 54.8471L209.317 54.1311ZM192.468 54.1311L193.175 54.8383L193.184 54.8292L192.468 54.1311ZM202.935 41.2604C208.374 41.2604 212.99 43.3192 216.837 47.4907L218.307 46.1349C214.098 41.5699 208.956 39.2604 202.935 39.2604V41.2604ZM216.846 47.5006C220.743 51.6144 222.699 56.6676 222.699 62.7259H224.699C224.699 56.1898 222.57 50.6344 218.298 46.1251L216.846 47.5006ZM222.699 62.7259C222.699 68.7842 220.743 73.8685 216.841 78.041L218.302 79.407C222.57 74.843 224.699 69.2618 224.699 62.7259H222.699ZM216.841 78.0414C212.996 82.1573 208.379 84.1914 202.935 84.1914V86.1914C208.951 86.1914 214.092 83.9138 218.303 79.4067L216.841 78.0414ZM202.935 84.1914C197.24 84.1914 192.955 82.2279 189.938 78.3639L188.361 79.5947C191.812 84.0134 196.717 86.1914 202.935 86.1914V84.1914ZM188.15 78.9793V101.019H190.15V78.9793H188.15ZM189.15 100.019H178.172V102.019H189.15V100.019ZM179.172 101.019V41.4518H177.172V101.019H179.172ZM178.172 42.4518H189.15V40.4518H178.172V42.4518ZM188.15 41.4518V46.4724H190.15V41.4518H188.15ZM189.938 47.0879C192.955 43.2238 197.24 41.2604 202.935 41.2604V39.2604C196.717 39.2604 191.812 41.4383 188.361 45.857L189.938 47.0879ZM191.761 72.1128C194.179 74.5303 197.249 75.7245 200.893 75.7245V73.7245C197.729 73.7245 195.183 72.7062 193.175 70.6986L191.761 72.1128ZM200.893 75.7245C204.536 75.7245 207.607 74.5303 210.025 72.1128L208.61 70.6986C206.603 72.7062 204.057 73.7245 200.893 73.7245V75.7245ZM210.025 72.1128C212.5 69.6371 213.721 66.4804 213.721 62.7259H211.721C211.721 66.006 210.673 68.6358 208.61 70.6986L210.025 72.1128ZM213.721 62.7259C213.721 58.9715 212.5 55.8374 210.016 53.4151L208.619 54.8471C210.673 56.8498 211.721 59.4456 211.721 62.7259H213.721ZM210.033 53.433C207.618 50.9554 204.544 49.7273 200.893 49.7273V51.7273C204.049 51.7273 206.592 52.7683 208.601 54.8292L210.033 53.433ZM200.893 49.7273C197.242 49.7273 194.168 50.9554 191.752 53.433L193.184 54.8292C195.194 52.7683 197.736 51.7273 200.893 51.7273V49.7273ZM191.761 53.424C189.337 55.848 188.15 58.9793 188.15 62.7259H190.15C190.15 59.4378 191.174 56.8392 193.175 54.8382L191.761 53.424ZM188.15 62.7259C188.15 66.4728 189.337 69.6266 191.752 72.1038L193.184 70.7076C191.175 68.6464 190.15 66.0136 190.15 62.7259H188.15Z" fill="#98ABEE" mask="url(#path-1-outside-1_356_4712)"/>
<mask id="mask0_356_4712" style="mask-type:alpha" maskUnits="userSpaceOnUse" x="2" y="40" width="222" height="63">
<mask id="path-3-outside-2_356_4712" maskUnits="userSpaceOnUse" x="1" y="39" width="224" height="65" fill="black">
<rect fill="white" x="1" y="39" width="224" height="65"/>
<path d="M37.6127 41.4518H48.3348V81.9577C48.3348 88.5385 46.1507 93.5592 41.7824 97.0198C37.4708 100.48 32.2516 102.211 26.1246 102.211C21.5294 102.211 17.4731 101.331 13.9558 99.5727C10.4952 97.814 7.82888 95.2327 5.95675 91.8289L15.3174 86.4678C17.4731 90.439 21.189 92.4246 26.465 92.4246C29.9256 92.4246 32.6487 91.5169 34.6343 89.7015C36.6199 87.8861 37.6127 85.3048 37.6127 81.9577V77.3625C34.379 81.674 29.8405 83.8298 23.9972 83.8298C17.9837 83.8298 12.9347 81.7308 8.85004 77.5327C4.82213 73.2778 2.80818 68.1153 2.80818 62.0451C2.80818 56.0316 4.8505 50.8975 8.93513 46.6426C13.0198 42.3878 18.0405 40.2604 23.9972 40.2604C29.8405 40.2604 34.379 42.4162 37.6127 46.7277V41.4518ZM17.1044 70.4697C19.3736 72.6254 22.2386 73.7033 25.6991 73.7033C29.1597 73.7033 31.9963 72.6254 34.2088 70.4697C36.478 68.2571 37.6127 65.449 37.6127 62.0451C37.6127 58.698 36.478 55.9465 34.2088 53.7907C31.9963 51.5782 29.1597 50.472 25.6991 50.472C22.2386 50.472 19.3736 51.5782 17.1044 53.7907C14.8919 55.9465 13.7856 58.698 13.7856 62.0451C13.7856 65.449 14.8919 68.2571 17.1044 70.4697ZM67.1391 48.7701C68.1603 46.047 69.8339 44.0046 72.1598 42.6431C74.5425 41.2816 77.1805 40.6008 80.0738 40.6008V52.8547C76.7267 52.4576 73.7199 53.1383 71.0536 54.897C68.4439 56.6557 67.1391 59.5773 67.1391 63.6619V84H56.1617V41.4518H67.1391V48.7701ZM119.039 78.724C114.67 83.0356 109.338 85.1914 103.041 85.1914C96.7434 85.1914 91.4107 83.0356 87.0424 78.724C82.7308 74.3557 80.5751 69.023 80.5751 62.7259C80.5751 56.4287 82.7308 51.1244 87.0424 46.8128C91.4107 42.4445 96.7434 40.2604 103.041 40.2604C109.338 40.2604 114.67 42.4445 119.039 46.8128C123.407 51.1244 125.591 56.4287 125.591 62.7259C125.591 69.023 123.407 74.3557 119.039 78.724ZM94.7862 71.1504C96.9987 73.3629 99.7501 74.4692 103.041 74.4692C106.331 74.4692 109.082 73.3629 111.295 71.1504C113.507 68.9379 114.614 66.1297 114.614 62.7259C114.614 59.322 113.507 56.5138 111.295 54.3013C109.082 52.0888 106.331 50.9826 103.041 50.9826C99.7501 50.9826 96.9987 52.0888 94.7862 54.3013C92.6304 56.5138 91.5525 59.322 91.5525 62.7259C91.5525 66.1297 92.6304 68.9379 94.7862 71.1504ZM159.268 41.4518H170.245V84H159.268V79.2346C156.602 83.2058 152.375 85.1914 146.589 85.1914C141.937 85.1914 138.079 83.6312 135.016 80.511C132.009 77.3908 130.505 73.0793 130.505 67.5764V41.4518H141.483V66.2148C141.483 69.0514 142.249 71.2355 143.78 72.7673C145.312 74.2423 147.355 74.9798 149.907 74.9798C152.744 74.9798 155.013 74.1004 156.715 72.3418C158.417 70.5831 159.268 67.9451 159.268 64.4278V41.4518ZM202.935 40.2604C208.665 40.2604 213.544 42.4445 217.572 46.8128C221.656 51.1244 223.699 56.4287 223.699 62.7259C223.699 69.023 221.656 74.3557 217.572 78.724C213.544 83.0356 208.665 85.1914 202.935 85.1914C196.978 85.1914 192.383 83.1207 189.15 78.9793V101.019H178.172V41.4518H189.15V46.4724C192.383 42.3311 196.978 40.2604 202.935 40.2604ZM192.468 71.4057C194.681 73.6182 197.489 74.7245 200.893 74.7245C204.297 74.7245 207.105 73.6182 209.317 71.4057C211.587 69.1365 212.721 66.2432 212.721 62.7259C212.721 59.2086 211.587 56.3436 209.317 54.1311C207.105 51.8619 204.297 50.7273 200.893 50.7273C197.489 50.7273 194.681 51.8619 192.468 54.1311C190.256 56.3436 189.15 59.2086 189.15 62.7259C189.15 66.2432 190.256 69.1365 192.468 71.4057Z"/>
</mask>
<path d="M37.6127 41.4518V40.4518H36.6127V41.4518H37.6127ZM48.3348 41.4518H49.3348V40.4518H48.3348V41.4518ZM41.7824 97.0198L41.1614 96.2359L41.1564 96.2399L41.7824 97.0198ZM13.9558 99.5727L13.5028 100.464L13.5086 100.467L13.9558 99.5727ZM5.95675 91.8289L5.45977 90.9611L4.60688 91.4496L5.08054 92.3108L5.95675 91.8289ZM15.3174 86.4678L16.1962 85.9907L15.7081 85.0916L14.8204 85.6L15.3174 86.4678ZM34.6343 89.7015L33.9595 88.9634V88.9634L34.6343 89.7015ZM37.6127 77.3625H38.6127V74.3625L36.8127 76.7625L37.6127 77.3625ZM8.85003 77.5327L8.12376 78.2202L8.13331 78.23L8.85003 77.5327ZM8.93513 46.6426L9.65652 47.3352L8.93513 46.6426ZM37.6127 46.7277L36.8127 47.3277L38.6127 49.7277V46.7277H37.6127ZM17.1044 70.4697L16.3973 71.1768L16.4064 71.1858L16.4156 71.1947L17.1044 70.4697ZM34.2088 70.4697L34.9067 71.1859L34.9069 71.1857L34.2088 70.4697ZM34.2088 53.7907L33.5017 54.4979L33.5107 54.5069L33.52 54.5157L34.2088 53.7907ZM17.1044 53.7907L17.8023 54.507L17.8025 54.5067L17.1044 53.7907ZM37.6127 42.4518H48.3348V40.4518H37.6127V42.4518ZM47.3348 41.4518V81.9577H49.3348V41.4518H47.3348ZM47.3348 81.9577C47.3348 88.2948 45.2457 93.0003 41.1614 96.2359L42.4033 97.8036C47.0556 94.118 49.3348 88.7821 49.3348 81.9577H47.3348ZM41.1564 96.2399C37.0418 99.5424 32.0501 101.211 26.1246 101.211V103.211C32.453 103.211 37.8999 101.418 42.4083 97.7996L41.1564 96.2399ZM26.1246 101.211C21.6586 101.211 17.7599 100.357 14.403 98.6782L13.5086 100.467C17.1864 102.306 21.4003 103.211 26.1246 103.211V101.211ZM14.4089 98.6812C11.1274 97.0135 8.60842 94.5751 6.83297 91.347L5.08054 92.3108C7.04933 95.8904 9.86307 98.6145 13.5028 100.464L14.4089 98.6812ZM6.45374 92.6966L15.8144 87.3356L14.8204 85.6L5.45977 90.9611L6.45374 92.6966ZM14.4385 86.9449C16.8019 91.2986 20.8964 93.4246 26.465 93.4246V91.4246C21.4816 91.4246 18.1444 89.5794 16.1962 85.9907L14.4385 86.9449ZM26.465 93.4246C30.1015 93.4246 33.0911 92.4673 35.309 90.4395L33.9595 88.9634C32.2063 90.5664 29.7497 91.4246 26.465 91.4246V93.4246ZM35.309 90.4395C37.5505 88.3901 38.6127 85.512 38.6127 81.9577H36.6127C36.6127 85.0976 35.6892 87.382 33.9595 88.9634L35.309 90.4395ZM38.6127 81.9577V77.3625H36.6127V81.9577H38.6127ZM36.8127 76.7625C33.7855 80.7986 29.5565 82.8298 23.9972 82.8298V84.8298C30.1245 84.8298 34.9724 82.5494 38.4127 77.9625L36.8127 76.7625ZM23.9972 82.8298C18.2456 82.8298 13.4576 80.8342 9.56676 76.8353L8.13331 78.23C12.4118 82.6273 17.7219 84.8298 23.9972 84.8298V82.8298ZM9.57624 76.8452C5.73105 72.7834 3.80818 67.8698 3.80818 62.0451H1.80818C1.80818 68.3608 3.91322 73.7723 8.12383 78.2201L9.57624 76.8452ZM3.80818 62.0451C3.80818 56.2841 5.75453 51.3997 9.65652 47.3352L8.21374 45.9501C3.94647 50.3952 1.80818 55.7791 1.80818 62.0451H3.80818ZM9.65652 47.3352C13.5505 43.279 18.3097 41.2604 23.9972 41.2604V39.2604C17.7712 39.2604 12.4891 41.4967 8.21374 45.9501L9.65652 47.3352ZM23.9972 41.2604C29.5565 41.2604 33.7855 43.2916 36.8127 47.3277L38.4127 46.1277C34.9724 41.5408 30.1245 39.2604 23.9972 39.2604V41.2604ZM38.6127 46.7277V41.4518H36.6127V46.7277H38.6127ZM16.4156 71.1947C18.8911 73.5463 22.0117 74.7033 25.6991 74.7033V72.7033C22.4654 72.7033 19.8562 71.7046 17.7931 69.7447L16.4156 71.1947ZM25.6991 74.7033C29.3863 74.7033 32.4843 73.5461 34.9067 71.1859L33.5109 69.7534C31.5082 71.7048 28.9331 72.7033 25.6991 72.7033V74.7033ZM34.9069 71.1857C37.3845 68.77 38.6127 65.6964 38.6127 62.0451H36.6127C36.6127 65.2015 35.5716 67.7443 33.5107 69.7537L34.9069 71.1857ZM38.6127 62.0451C38.6127 58.4451 37.3804 55.4245 34.8975 53.0657L33.52 54.5157C35.5757 56.4686 36.6127 58.9509 36.6127 62.0451H38.6127ZM34.9159 53.0836C32.4951 50.6629 29.3941 49.472 25.6991 49.472V51.472C28.9254 51.472 31.4974 52.4936 33.5017 54.4979L34.9159 53.0836ZM25.6991 49.472C22.004 49.472 18.8803 50.6626 16.4063 53.0747L17.8025 54.5067C19.867 52.4939 22.4731 51.472 25.6991 51.472V49.472ZM16.4065 53.0745C13.9837 55.4353 12.7856 58.4532 12.7856 62.0451H14.7856C14.7856 58.9427 15.8001 56.4578 17.8023 54.507L16.4065 53.0745ZM12.7856 62.0451C12.7856 65.6885 13.9798 68.7593 16.3973 71.1768L17.8115 69.7626C15.8039 67.755 14.7856 65.2094 14.7856 62.0451H12.7856ZM67.1391 48.7701H66.1391L68.0755 49.1212L67.1391 48.7701ZM72.1598 42.6431L71.6637 41.7748L71.6546 41.7801L72.1598 42.6431ZM80.0738 40.6008H81.0738V39.6008H80.0738V40.6008ZM80.0738 52.8547L79.956 53.8477L81.0738 53.9803V52.8547H80.0738ZM71.0536 54.897L70.503 54.0622L70.4947 54.0677L71.0536 54.897ZM67.1391 84V85H68.1391V84H67.1391ZM56.1617 84H55.1617V85H56.1617V84ZM56.1617 41.4518V40.4518H55.1617V41.4518H56.1617ZM67.1391 41.4518H68.1391V40.4518H67.1391V41.4518ZM68.0755 49.1212C69.0228 46.5949 70.5535 44.7421 72.665 43.5061L71.6546 41.7801C69.1143 43.2671 67.2978 45.499 66.2028 48.4189L68.0755 49.1212ZM72.656 43.5113C74.8793 42.2409 77.3447 41.6008 80.0738 41.6008V39.6008C77.0163 39.6008 74.2058 40.3222 71.6637 41.7749L72.656 43.5113ZM79.0738 40.6008V52.8547H81.0738V40.6008H79.0738ZM80.1916 51.8616C76.624 51.4384 73.378 52.166 70.503 54.0622L71.6042 55.7318C74.0619 54.1107 76.8293 53.4768 79.956 53.8477L80.1916 51.8616ZM70.4947 54.0677C67.5287 56.0666 66.1391 59.3554 66.1391 63.6619H68.1391C68.1391 59.7992 69.3592 57.2447 71.6124 55.7263L70.4947 54.0677ZM66.1391 63.6619V84H68.1391V63.6619H66.1391ZM67.1391 83H56.1617V85H67.1391V83ZM57.1617 84V41.4518H55.1617V84H57.1617ZM56.1617 42.4518H67.1391V40.4518H56.1617V42.4518ZM66.1391 41.4518V48.7701H68.1391V41.4518H66.1391ZM119.039 78.724L119.741 79.4357L119.746 79.4311L119.039 78.724ZM87.0424 78.724L86.3306 79.4265L86.3399 79.4357L87.0424 78.724ZM87.0424 46.8128L87.7495 47.5199L87.0424 46.8128ZM119.039 46.8128L118.332 47.52L118.336 47.5245L119.039 46.8128ZM94.7862 71.1504L94.0699 71.8484L94.0791 71.8575L94.7862 71.1504ZM94.7862 54.3013L94.079 53.5942L94.07 53.6035L94.7862 54.3013ZM118.336 78.0123C114.16 82.1339 109.082 84.1914 103.041 84.1914V86.1914C109.593 86.1914 115.18 83.9373 119.741 79.4357L118.336 78.0123ZM103.041 84.1914C96.9987 84.1914 91.9206 82.1339 87.7449 78.0123L86.3399 79.4357C90.9007 83.9373 96.4881 86.1914 103.041 86.1914V84.1914ZM87.7541 78.0215C83.6326 73.8458 81.5751 68.7677 81.5751 62.7259H79.5751C79.5751 69.2783 81.8291 74.8657 86.3307 79.4265L87.7541 78.0215ZM81.5751 62.7259C81.5751 56.6842 83.6322 51.6372 87.7495 47.5199L86.3353 46.1057C81.8294 50.6116 79.5751 56.1732 79.5751 62.7259H81.5751ZM87.7495 47.5199C91.9262 43.3432 97.0029 41.2604 103.041 41.2604V39.2604C96.4839 39.2604 90.8951 41.5459 86.3353 46.1057L87.7495 47.5199ZM103.041 41.2604C109.078 41.2604 114.155 43.3432 118.332 47.5199L119.746 46.1057C115.186 41.5459 109.597 39.2604 103.041 39.2604V41.2604ZM118.336 47.5245C122.509 51.6428 124.591 56.6884 124.591 62.7259H126.591C126.591 56.169 124.305 50.606 119.741 46.1011L118.336 47.5245ZM124.591 62.7259C124.591 68.7635 122.508 73.8402 118.332 78.0169L119.746 79.4311C124.306 74.8713 126.591 69.2825 126.591 62.7259H124.591ZM94.0791 71.8575C96.4896 74.2681 99.5002 75.4692 103.041 75.4692V73.4692C100 73.4692 97.5078 72.4578 95.4933 70.4433L94.0791 71.8575ZM103.041 75.4692C106.581 75.4692 109.591 74.2681 112.002 71.8575L110.588 70.4433C108.573 72.4578 106.081 73.4692 103.041 73.4692V75.4692ZM112.002 71.8575C114.419 69.4401 115.614 66.3693 115.614 62.7259H113.614C113.614 65.8902 112.595 68.4358 110.588 70.4433L112.002 71.8575ZM115.614 62.7259C115.614 59.0825 114.419 56.0117 112.002 53.5942L110.588 55.0084C112.595 57.016 113.614 59.5616 113.614 62.7259H115.614ZM112.002 53.5942C109.591 51.1837 106.581 49.9826 103.041 49.9826V51.9826C106.081 51.9826 108.573 52.994 110.588 55.0084L112.002 53.5942ZM103.041 49.9826C99.5002 49.9826 96.4896 51.1837 94.0791 53.5942L95.4933 55.0084C97.5078 52.994 100 51.9826 103.041 51.9826V49.9826ZM94.07 53.6035C91.7129 56.0225 90.5525 59.0904 90.5525 62.7259H92.5525C92.5525 59.5537 93.5479 57.0051 95.5024 54.9992L94.07 53.6035ZM90.5525 62.7259C90.5525 66.3614 91.7129 69.4292 94.07 71.8483L95.5024 70.4526C93.5479 68.4466 92.5525 65.8981 92.5525 62.7259H90.5525ZM159.268 41.4518V40.4518H158.268V41.4518H159.268ZM170.245 41.4518H171.245V40.4518H170.245V41.4518ZM170.245 84V85H171.245V84H170.245ZM159.268 84H158.268V85H159.268V84ZM159.268 79.2346H160.268V75.9513L158.438 78.6772L159.268 79.2346ZM135.016 80.511L134.295 81.205L134.302 81.2116L135.016 80.511ZM130.505 41.4518V40.4518H129.505V41.4518H130.505ZM141.483 41.4518H142.483V40.4518H141.483V41.4518ZM143.78 72.7673L143.073 73.4744L143.08 73.481L143.087 73.4876L143.78 72.7673ZM156.715 72.3418L155.997 71.6464L156.715 72.3418ZM159.268 42.4518H170.245V40.4518H159.268V42.4518ZM169.245 41.4518V84H171.245V41.4518H169.245ZM170.245 83H159.268V85H170.245V83ZM160.268 84V79.2346H158.268V84H160.268ZM158.438 78.6772C155.998 82.3113 152.122 84.1914 146.589 84.1914V86.1914C152.628 86.1914 157.206 84.1002 160.098 79.792L158.438 78.6772ZM146.589 84.1914C142.186 84.1914 138.592 82.726 135.729 79.8105L134.302 81.2116C137.566 84.5365 141.687 86.1914 146.589 86.1914V84.1914ZM135.736 79.8172C132.953 76.93 131.505 72.8935 131.505 67.5764H129.505C129.505 73.2651 131.064 77.8517 134.295 81.2049L135.736 79.8172ZM131.505 67.5764V41.4518H129.505V67.5764H131.505ZM130.505 42.4518H141.483V40.4518H130.505V42.4518ZM140.483 41.4518V66.2148H142.483V41.4518H140.483ZM140.483 66.2148C140.483 69.2313 141.301 71.7023 143.073 73.4744L144.488 72.0602C143.196 70.7687 142.483 68.8715 142.483 66.2148H140.483ZM143.087 73.4876C144.841 75.177 147.151 75.9798 149.907 75.9798V73.9798C147.558 73.9798 145.783 73.3076 144.474 72.0469L143.087 73.4876ZM149.907 75.9798C152.968 75.9798 155.513 75.0218 157.434 73.0372L155.997 71.6464C154.513 73.1791 152.52 73.9798 149.907 73.9798V75.9798ZM157.434 73.0372C159.382 71.0239 160.268 68.0912 160.268 64.4278H158.268C158.268 67.799 157.452 70.1423 155.997 71.6464L157.434 73.0372ZM160.268 64.4278V41.4518H158.268V64.4278H160.268ZM217.572 46.8128L216.837 47.4908L216.846 47.5006L217.572 46.8128ZM217.572 78.724L216.841 78.041L216.841 78.0414L217.572 78.724ZM189.15 78.9793L189.938 78.3639L188.15 76.0737V78.9793H189.15ZM189.15 101.019V102.019H190.15V101.019H189.15ZM178.172 101.019H177.172V102.019H178.172V101.019ZM178.172 41.4518V40.4518H177.172V41.4518H178.172ZM189.15 41.4518H190.15V40.4518H189.15V41.4518ZM189.15 46.4724H188.15V49.378L189.938 47.0879L189.15 46.4724ZM192.468 71.4057L191.752 72.1039L191.761 72.1128L192.468 71.4057ZM209.317 71.4057L208.61 70.6986L209.317 71.4057ZM209.317 54.1311L208.601 54.8292L208.61 54.8383L208.619 54.8471L209.317 54.1311ZM192.468 54.1311L193.175 54.8383L193.184 54.8292L192.468 54.1311ZM202.935 41.2604C208.374 41.2604 212.99 43.3192 216.837 47.4907L218.307 46.1349C214.098 41.5699 208.956 39.2604 202.935 39.2604V41.2604ZM216.846 47.5006C220.743 51.6144 222.699 56.6676 222.699 62.7259H224.699C224.699 56.1898 222.57 50.6344 218.298 46.1251L216.846 47.5006ZM222.699 62.7259C222.699 68.7842 220.743 73.8685 216.841 78.041L218.302 79.407C222.57 74.843 224.699 69.2618 224.699 62.7259H222.699ZM216.841 78.0414C212.996 82.1573 208.379 84.1914 202.935 84.1914V86.1914C208.951 86.1914 214.092 83.9138 218.303 79.4067L216.841 78.0414ZM202.935 84.1914C197.24 84.1914 192.955 82.2279 189.938 78.3639L188.361 79.5947C191.812 84.0134 196.717 86.1914 202.935 86.1914V84.1914ZM188.15 78.9793V101.019H190.15V78.9793H188.15ZM189.15 100.019H178.172V102.019H189.15V100.019ZM179.172 101.019V41.4518H177.172V101.019H179.172ZM178.172 42.4518H189.15V40.4518H178.172V42.4518ZM188.15 41.4518V46.4724H190.15V41.4518H188.15ZM189.938 47.0879C192.955 43.2238 197.24 41.2604 202.935 41.2604V39.2604C196.717 39.2604 191.812 41.4383 188.361 45.857L189.938 47.0879ZM191.761 72.1128C194.179 74.5303 197.249 75.7245 200.893 75.7245V73.7245C197.729 73.7245 195.183 72.7062 193.175 70.6986L191.761 72.1128ZM200.893 75.7245C204.536 75.7245 207.607 74.5303 210.025 72.1128L208.61 70.6986C206.603 72.7062 204.057 73.7245 200.893 73.7245V75.7245ZM210.025 72.1128C212.5 69.6371 213.721 66.4804 213.721 62.7259H211.721C211.721 66.006 210.673 68.6358 208.61 70.6986L210.025 72.1128ZM213.721 62.7259C213.721 58.9715 212.5 55.8374 210.016 53.4151L208.619 54.8471C210.673 56.8498 211.721 59.4456 211.721 62.7259H213.721ZM210.033 53.433C207.618 50.9554 204.544 49.7273 200.893 49.7273V51.7273C204.049 51.7273 206.592 52.7683 208.601 54.8292L210.033 53.433ZM200.893 49.7273C197.242 49.7273 194.168 50.9554 191.752 53.433L193.184 54.8292C195.194 52.7683 197.736 51.7273 200.893 51.7273V49.7273ZM191.761 53.424C189.337 55.848 188.15 58.9793 188.15 62.7259H190.15C190.15 59.4378 191.174 56.8392 193.175 54.8382L191.761 53.424ZM188.15 62.7259C188.15 66.4728 189.337 69.6266 191.752 72.1038L193.184 70.7076C191.175 68.6464 190.15 66.0136 190.15 62.7259H188.15Z" fill="#98ABEE" mask="url(#path-3-outside-2_356_4712)"/>
</mask>
<g mask="url(#mask0_356_4712)">
<rect x="145.656" y="-12.3613" width="115" height="167" transform="rotate(30 145.656 -12.3613)" fill="#E1E1E1"/>
</g>
</svg>
