<svg width="16" height="20" viewBox="0 0 16 20" fill="none" xmlns="http://www.w3.org/2000/svg">
<path d="M0.249959 7.99612V7.995C0.249959 3.72717 3.72693 0.25 7.99996 0.25C12.2729 0.25 15.75 3.72707 15.75 8L15.75 8.00112C15.764 11.1232 13.8194 14.0628 11.8262 16.2465C10.8343 17.3331 9.84063 18.2213 9.09475 18.8379C8.722 19.1461 8.41162 19.386 8.1949 19.5485C8.11723 19.6068 8.05161 19.6551 7.99949 19.693C7.4838 19.3225 5.75604 18.0363 4.06032 16.1655C2.10692 14.0103 0.235888 11.1228 0.249959 7.99612ZM3.74996 8C3.74996 10.3481 5.65189 12.25 7.99996 12.25C10.348 12.25 12.25 10.3481 12.25 8C12.25 5.65193 10.348 3.75 7.99996 3.75C5.65189 3.75 3.74996 5.65193 3.74996 8Z" fill="#002ED0" stroke="white" stroke-width="0.5"/>
</svg>
