<svg width="34" height="57" viewBox="0 0 34 57" fill="none" xmlns="http://www.w3.org/2000/svg">
<path d="M1.38273 52.2389C0.80765 51.63 0.52011 50.8688 0.52011 49.9555C0.52011 49.0421 0.80765 48.281 1.38273 47.672C1.96627 47.0631 2.69358 46.7587 3.56466 46.7587C4.52031 46.7587 5.34064 47.1477 6.02566 47.9258V46.9109H6.93903V53C6.93903 53.981 6.61766 54.7168 5.97492 55.2073C5.33218 55.6978 4.54568 55.9431 3.6154 55.9431C2.71049 55.9431 1.88593 55.7528 1.1417 55.3722V54.3827C1.87747 54.7971 2.65975 55.0043 3.48854 55.0043C4.20739 55.0043 4.79516 54.8436 5.25184 54.5223C5.70852 54.2094 5.93264 53.7019 5.92418 53V52.0613C5.33218 52.7886 4.54568 53.1522 3.56466 53.1522C2.69358 53.1522 1.96627 52.8478 1.38273 52.2389ZM5.92418 49.1943C5.73812 48.7715 5.44635 48.4163 5.04887 48.1287C4.65139 47.8412 4.19471 47.6974 3.67883 47.6974C3.06992 47.6974 2.55826 47.9046 2.14387 48.319C1.73793 48.7334 1.53496 49.2789 1.53496 49.9555C1.53496 50.632 1.73793 51.1775 2.14387 51.5919C2.55826 52.0063 3.06992 52.2135 3.67883 52.2135C4.19471 52.2135 4.65139 52.0824 5.04887 51.8202C5.44635 51.5496 5.73812 51.224 5.92418 50.8434V49.1943ZM9.41391 47.9892C9.65071 47.5917 10.0144 47.283 10.5049 47.0631C10.9954 46.8348 11.507 46.7418 12.0398 46.7841V47.7989C11.4478 47.7312 10.9235 47.8285 10.4668 48.0907C10.0186 48.3444 9.70145 48.7165 9.5154 49.207V53H8.50055V46.9109H9.41391V47.9892ZM13.1515 52.3023C12.5088 51.7272 12.1874 50.9449 12.1874 49.9555C12.1874 48.966 12.5088 48.1879 13.1515 47.6213C13.7942 47.0462 14.5554 46.7587 15.4349 46.7587C16.3229 46.7587 17.084 47.0462 17.7183 47.6213C18.3611 48.1879 18.6824 48.966 18.6824 49.9555C18.6824 50.9449 18.3611 51.7272 17.7183 52.3023C17.084 52.8689 16.3229 53.1522 15.4349 53.1522C14.5554 53.1522 13.7942 52.8689 13.1515 52.3023ZM17.0333 51.5919C17.4562 51.186 17.6676 50.6405 17.6676 49.9555C17.6676 49.2704 17.4562 48.7292 17.0333 48.3317C16.6104 47.9258 16.0777 47.7228 15.4349 47.7228C14.7922 47.7228 14.2594 47.9258 13.8365 48.3317C13.4137 48.7292 13.2022 49.2704 13.2022 49.9555C13.2022 50.6405 13.4137 51.186 13.8365 51.5919C14.2594 51.9894 14.7922 52.1881 15.4349 52.1881C16.0777 52.1881 16.6104 51.9894 17.0333 51.5919ZM24.3751 46.9109H25.3899V53H24.4766V52.0993C24.2567 52.3953 23.948 52.6448 23.5505 52.8478C23.1615 53.0507 22.7387 53.1522 22.282 53.1522C21.4955 53.1522 20.8739 52.9281 20.4172 52.4799C19.969 52.0232 19.7449 51.4185 19.7449 50.6658V46.9109H20.7597V50.539C20.7597 51.6553 21.3052 52.2135 22.3961 52.2135C23.1742 52.2135 23.8338 51.8076 24.3751 50.9957V46.9109ZM27.8626 47.9258C28.5476 47.1477 29.3679 46.7587 30.3236 46.7587C31.1946 46.7587 31.9177 47.0631 32.4928 47.672C33.0763 48.281 33.3681 49.0421 33.3681 49.9555C33.3681 50.8688 33.0763 51.63 32.4928 52.2389C31.9177 52.8478 31.1946 53.1522 30.3236 53.1522C29.3595 53.1522 28.5729 52.797 27.964 52.0866V55.7908H26.9492V46.9109H27.8626V47.9258ZM31.7317 51.5919C32.1461 51.1775 32.3533 50.632 32.3533 49.9555C32.3533 49.2789 32.1461 48.7334 31.7317 48.319C31.3257 47.9046 30.8183 47.6974 30.2094 47.6974C29.6935 47.6974 29.2368 47.8412 28.8393 48.1287C28.4419 48.4163 28.1501 48.7715 27.964 49.1943V50.7166C28.1501 51.1394 28.4419 51.4946 28.8393 51.7822C29.2368 52.0697 29.6935 52.2135 30.2094 52.2135C30.8183 52.2135 31.3257 52.0063 31.7317 51.5919Z" fill="#002ED0"/>
<path d="M0.752373 0C2.74646 0 4.36298 1.61653 4.36298 3.61061V42.1931H0.752373V0Z" fill="#002ED0"/>
<path d="M19.2306 0C19.2306 1.29459 18.1811 2.34406 16.8865 2.34406H15.443V42.1931H11.6554V2.34406H10.2118C8.91726 2.34406 7.86778 1.29459 7.86778 0H19.2306Z" fill="#002ED0"/>
<path d="M28.8588 31.425C28.8588 29.7452 28.7483 28.3031 28.5272 27.0987C28.3062 25.8943 28.0148 24.8484 27.6531 23.9609C27.2913 23.0577 26.8794 22.2732 26.4172 21.6076C25.955 20.9421 25.4827 20.3161 25.0004 19.7298C24.5181 19.1434 24.0459 18.5571 23.5837 17.9707C23.1215 17.3844 22.7095 16.7188 22.3478 15.974C21.986 15.2291 21.6947 14.3734 21.4736 13.4067C21.2525 12.4242 21.142 11.2515 21.142 9.88865V4.15989C21.142 3.77955 21.2124 3.35168 21.353 2.87626C21.5138 2.385 21.8052 1.93336 22.2272 1.52133C22.6492 1.09346 23.232 0.736894 23.9755 0.451645C24.7392 0.150548 25.7239 0 26.9296 0C28.1354 0 29.11 0.150548 29.8536 0.451645C30.6172 0.736894 31.21 1.09346 31.632 1.52133C32.054 1.93336 32.3354 2.385 32.4761 2.87626C32.6368 3.35168 32.7172 3.77955 32.7172 4.15989V10.9508C32.7172 13.0817 30.9897 14.8092 28.8588 14.8092V4.15989C28.8588 3.77955 28.7985 3.47053 28.6779 3.23283C28.5775 2.97927 28.4368 2.78911 28.2559 2.66233C28.0751 2.5197 27.8641 2.42462 27.6229 2.37708C27.4019 2.31369 27.1708 2.282 26.9296 2.282C26.6885 2.282 26.4473 2.31369 26.2062 2.37708C25.9851 2.42462 25.7842 2.5197 25.6033 2.66233C25.4224 2.78911 25.2717 2.97927 25.1511 3.23283C25.0507 3.47053 25.0004 3.77955 25.0004 4.15989V8.79519C25.0004 10.5859 25.1913 12.0835 25.5731 13.2879C25.955 14.4923 26.4272 15.5461 26.9899 16.4494C27.5727 17.3368 28.1957 18.145 28.8588 18.874C29.522 19.603 30.1349 20.3953 30.6976 21.2511C31.2804 22.091 31.7627 23.0735 32.1445 24.1987C32.5263 25.308 32.7172 26.6946 32.7172 28.3585V37.6291C32.7172 37.8193 32.6871 38.168 32.6268 38.6751C32.5665 39.1663 32.3555 39.6734 31.9938 40.1964C31.632 40.7194 31.0593 41.1789 30.2756 41.5751C29.4918 41.9871 28.3765 42.1931 26.9296 42.1931C25.4827 42.1931 24.3674 41.9871 23.5837 41.5751C22.7999 41.1789 22.2272 40.7194 21.8655 40.1964C21.5037 39.6734 21.2927 39.1663 21.2325 38.6751C21.1722 38.168 21.142 37.8193 21.142 37.6291V23.9372C23.273 23.9372 25.0004 25.6646 25.0004 27.7956V37.6291C25.0004 37.8193 25.0105 38.0491 25.0306 38.3185C25.0507 38.5721 25.121 38.8177 25.2416 39.0554C25.3621 39.2931 25.5531 39.4991 25.8143 39.6734C26.0755 39.8319 26.4473 39.9111 26.9296 39.9111C27.4119 39.9111 27.7837 39.8319 28.0449 39.6734C28.3062 39.4991 28.4971 39.2931 28.6177 39.0554C28.7382 38.8177 28.8086 38.5721 28.8287 38.3185C28.8488 38.0491 28.8588 37.8193 28.8588 37.6291V31.425Z" fill="#002ED0"/>
</svg>
