<svg width="200" height="110" viewBox="0 0 200 110" fill="none" xmlns="http://www.w3.org/2000/svg">
<mask id="path-1-outside-1_1527_106" maskUnits="userSpaceOnUse" x="0" y="22" width="196" height="59" fill="black">
<rect fill="white" y="22" width="196" height="59"/>
<path d="M29.3583 35.4518V46.0037H19.7424V63.7038C19.7424 65.1788 20.1111 66.2567 20.8486 66.9375C21.5861 67.6182 22.664 68.0153 24.0823 68.1288C25.5006 68.1855 27.2592 68.1572 29.3583 68.0437V78C21.9265 78.851 16.6222 78.1702 13.4452 75.9577C10.325 73.6884 8.76494 69.6038 8.76494 63.7038V46.0037H1.36154V35.4518H8.76494V26.857L19.7424 23.5382V35.4518H29.3583ZM74.9979 61.236H42.9166C44.3348 66.5687 48.3344 69.2351 54.9152 69.2351C59.1133 69.2351 62.2902 67.8168 64.446 64.9802L73.296 70.086C69.0979 76.1562 62.9142 79.1914 54.745 79.1914C47.7103 79.1914 42.0656 77.0639 37.8108 72.8091C33.5559 68.5543 31.4285 63.1932 31.4285 56.7259C31.4285 50.372 33.5276 45.0393 37.7257 40.7277C41.867 36.4162 47.2565 34.2604 53.894 34.2604C60.1911 34.2604 65.3253 36.4162 69.2965 40.7277C73.3811 45.0393 75.4234 50.372 75.4234 56.7259C75.4234 57.9172 75.2816 59.4206 74.9979 61.236ZM42.7464 52.7263H64.446C63.8219 49.9465 62.5455 47.8191 60.6166 46.3441C58.7445 44.8691 56.5036 44.1316 53.894 44.1316C50.944 44.1316 48.5046 44.8975 46.5757 46.4292C44.6468 47.9042 43.3704 50.0033 42.7464 52.7263ZM112.964 40.4724V35.4518H123.941V78H112.964V72.9793C109.673 77.1207 105.05 79.1914 99.0929 79.1914C93.4198 79.1914 88.5409 77.0356 84.4563 72.724C80.4284 68.3557 78.4144 63.023 78.4144 56.7259C78.4144 50.4855 80.4284 45.1811 84.4563 40.8128C88.5409 36.4445 93.4198 34.2604 99.0929 34.2604C105.05 34.2604 109.673 36.3311 112.964 40.4724ZM92.7106 65.4057C94.9231 67.6182 97.7313 68.7245 101.135 68.7245C104.539 68.7245 107.347 67.6182 109.56 65.4057C111.829 63.1365 112.964 60.2432 112.964 56.7259C112.964 53.2086 111.829 50.3436 109.56 48.1311C107.347 45.8619 104.539 44.7273 101.135 44.7273C97.7313 44.7273 94.9231 45.8619 92.7106 48.1311C90.4981 50.3436 89.3919 53.2086 89.3919 56.7259C89.3919 60.2432 90.4981 63.1365 92.7106 65.4057ZM178.826 34.2604C183.705 34.2604 187.591 35.8489 190.485 39.0258C193.435 42.2027 194.91 46.4576 194.91 51.7903V78H183.932V52.5561C183.932 50.0033 183.308 48.0177 182.06 46.5994C180.812 45.1811 179.053 44.472 176.784 44.472C174.288 44.472 172.331 45.2946 170.912 46.9398C169.551 48.585 168.87 50.9677 168.87 54.0879V78H157.893V52.5561C157.893 50.0033 157.269 48.0177 156.02 46.5994C154.772 45.1811 153.014 44.472 150.744 44.472C148.305 44.472 146.348 45.3229 144.873 47.0249C143.455 48.6701 142.745 51.0244 142.745 54.0879V78H131.768V35.4518H142.745V39.9619C145.298 36.1609 149.241 34.2604 154.574 34.2604C159.85 34.2604 163.707 36.3027 166.147 40.3873C168.927 36.3027 173.153 34.2604 178.826 34.2604Z"/>
</mask>
<path d="M29.3583 35.4518H30.3583V34.4518H29.3583V35.4518ZM29.3583 46.0037V47.0037H30.3583V46.0037H29.3583ZM19.7424 46.0037V45.0037H18.7424V46.0037H19.7424ZM20.8486 66.9375L20.1704 67.6723L20.8486 66.9375ZM24.0823 68.1288L24.0026 69.1256L24.0224 69.1272L24.0423 69.128L24.0823 68.1288ZM29.3583 68.0437H30.3583V66.9882L29.3043 67.0452L29.3583 68.0437ZM29.3583 78L29.4721 78.9935L30.3583 78.892V78H29.3583ZM13.4452 75.9577L12.8571 76.7664L12.8654 76.7724L12.8738 76.7783L13.4452 75.9577ZM8.76494 46.0037H9.76494V45.0037H8.76494V46.0037ZM1.36154 46.0037H0.361544V47.0037H1.36154V46.0037ZM1.36154 35.4518V34.4518H0.361544V35.4518H1.36154ZM8.76494 35.4518V36.4518H9.76494V35.4518H8.76494ZM8.76494 26.857L8.47555 25.8998L7.76494 26.1146V26.857H8.76494ZM19.7424 23.5382H20.7424V22.1912L19.453 22.581L19.7424 23.5382ZM19.7424 35.4518H18.7424V36.4518H19.7424V35.4518ZM28.3583 35.4518V46.0037H30.3583V35.4518H28.3583ZM29.3583 45.0037H19.7424V47.0037H29.3583V45.0037ZM18.7424 46.0037V63.7038H20.7424V46.0037H18.7424ZM18.7424 63.7038C18.7424 65.3257 19.1475 66.728 20.1704 67.6723L21.5269 66.2027C21.0748 65.7853 20.7424 65.0319 20.7424 63.7038H18.7424ZM20.1704 67.6723C21.1289 68.557 22.4521 69.0016 24.0026 69.1256L24.1621 67.132C22.876 67.0291 22.0434 66.6794 21.5269 66.2027L20.1704 67.6723ZM24.0423 69.128C25.5029 69.1864 27.2953 69.1567 29.4123 69.0423L29.3043 67.0452C27.2232 67.1577 25.4983 67.1846 24.1223 67.1296L24.0423 69.128ZM28.3583 68.0437V78H30.3583V68.0437H28.3583ZM29.2445 77.0065C21.859 77.8522 16.8766 77.1287 14.0167 75.1371L12.8738 76.7783C16.3678 79.2117 21.994 79.8498 29.4721 78.9935L29.2445 77.0065ZM14.0334 75.1489C11.2868 73.1514 9.76494 69.459 9.76494 63.7038H7.76494C7.76494 69.7487 9.36329 74.2255 12.8571 76.7664L14.0334 75.1489ZM9.76494 63.7038V46.0037H7.76494V63.7038H9.76494ZM8.76494 45.0037H1.36154V47.0037H8.76494V45.0037ZM2.36154 46.0037V35.4518H0.361544V46.0037H2.36154ZM1.36154 36.4518H8.76494V34.4518H1.36154V36.4518ZM9.76494 35.4518V26.857H7.76494V35.4518H9.76494ZM9.05433 27.8142L20.0318 24.4955L19.453 22.581L8.47555 25.8998L9.05433 27.8142ZM18.7424 23.5382V35.4518H20.7424V23.5382H18.7424ZM19.7424 36.4518H29.3583V34.4518H19.7424V36.4518ZM74.9979 61.236V62.236H75.8538L75.9859 61.3904L74.9979 61.236ZM42.9166 61.236V60.236H41.6158L41.9501 61.493L42.9166 61.236ZM64.446 64.9802L64.9457 64.1141L64.1828 63.6739L63.6498 64.3752L64.446 64.9802ZM73.296 70.086L74.1185 70.6548L74.7358 69.7622L73.7957 69.2198L73.296 70.086ZM37.8108 72.8091L37.1037 73.5162L37.8108 72.8091ZM37.7257 40.7277L38.4422 41.4254L38.4469 41.4205L37.7257 40.7277ZM69.2965 40.7277L68.5608 41.4053L68.5705 41.4155L69.2965 40.7277ZM42.7464 52.7263L41.7716 52.503L41.4913 53.7263H42.7464V52.7263ZM64.446 52.7263V53.7263H65.6953L65.4217 52.5073L64.446 52.7263ZM60.6166 46.3441L59.9977 47.1296L60.0034 47.1341L60.0092 47.1385L60.6166 46.3441ZM46.5757 46.4292L47.1832 47.2236L47.1904 47.218L47.1976 47.2123L46.5757 46.4292ZM74.9979 60.236H42.9166V62.236H74.9979V60.236ZM41.9501 61.493C42.712 64.3577 44.1929 66.5792 46.4252 68.0673C48.6396 69.5436 51.4981 70.2351 54.9152 70.2351V68.2351C51.7514 68.2351 49.3198 67.5933 47.5346 66.4032C45.7673 65.2251 44.5393 63.447 43.883 60.979L41.9501 61.493ZM54.9152 70.2351C59.3629 70.2351 62.8622 68.7168 65.2421 65.5853L63.6498 64.3752C61.7182 66.9168 58.8636 68.2351 54.9152 68.2351V70.2351ZM63.9462 65.8464L72.7963 70.9522L73.7957 69.2198L64.9457 64.1141L63.9462 65.8464ZM72.4735 69.5172C68.4844 75.2853 62.6269 78.1914 54.745 78.1914V80.1914C63.2015 80.1914 69.7114 77.0272 74.1185 70.6548L72.4735 69.5172ZM54.745 78.1914C47.9272 78.1914 42.5535 76.1376 38.5179 72.102L37.1037 73.5162C41.5777 77.9902 47.4935 80.1914 54.745 80.1914V78.1914ZM38.5179 72.102C34.4655 68.0497 32.4285 62.9499 32.4285 56.7259H30.4285C30.4285 63.4365 32.6463 69.0589 37.1037 73.5162L38.5179 72.102ZM32.4285 56.7259C32.4285 50.6165 34.4368 45.539 38.4421 41.4254L37.0092 40.0301C32.6184 44.5396 30.4285 50.1275 30.4285 56.7259H32.4285ZM38.4469 41.4205C42.3779 37.3279 47.4956 35.2604 53.894 35.2604V33.2604C47.0174 33.2604 41.3562 35.5045 37.0045 40.035L38.4469 41.4205ZM53.894 35.2604C59.9349 35.2604 64.7943 37.3157 68.5609 41.4052L70.032 40.0503C65.8563 35.5166 60.4474 33.2604 53.894 33.2604V35.2604ZM68.5705 41.4155C72.4661 45.5275 74.4234 50.6083 74.4234 56.7259H76.4234C76.4234 50.1358 74.2961 44.5511 70.0224 40.04L68.5705 41.4155ZM74.4234 56.7259C74.4234 57.8457 74.2894 59.2931 74.0099 61.0816L75.9859 61.3904C76.2738 59.5481 76.4234 57.9887 76.4234 56.7259H74.4234ZM42.7464 53.7263H64.446V51.7263H42.7464V53.7263ZM65.4217 52.5073C64.7556 49.5401 63.3707 47.1913 61.2241 45.5497L60.0092 47.1385C61.7202 48.4469 62.8883 50.3529 63.4702 52.9454L65.4217 52.5073ZM61.2355 45.5586C59.17 43.9313 56.7055 43.1316 53.894 43.1316V45.1316C56.3018 45.1316 58.319 45.8069 59.9977 47.1296L61.2355 45.5586ZM53.894 43.1316C50.7644 43.1316 48.0926 43.9476 45.9538 45.6461L47.1976 47.2123C48.9165 45.8473 51.1236 45.1316 53.894 45.1316V43.1316ZM45.9683 45.6348C43.8267 47.2725 42.4395 49.5887 41.7716 52.503L43.7211 52.9497C44.3013 50.4179 45.467 48.5359 47.1832 47.2236L45.9683 45.6348ZM112.964 40.4724L112.181 41.0945L113.964 43.3386V40.4724H112.964ZM112.964 35.4518V34.4518H111.964V35.4518H112.964ZM123.941 35.4518H124.941V34.4518H123.941V35.4518ZM123.941 78V79H124.941V78H123.941ZM112.964 78H111.964V79H112.964V78ZM112.964 72.9793H113.964V70.1132L112.181 72.3572L112.964 72.9793ZM84.4563 72.724L83.721 73.402L83.7303 73.4118L84.4563 72.724ZM84.4563 40.8128L83.7258 40.1298L83.7211 40.1349L84.4563 40.8128ZM92.7106 65.4057L91.9946 66.1039L92.0035 66.1128L92.7106 65.4057ZM109.56 65.4057L110.267 66.1128L109.56 65.4057ZM109.56 48.1311L108.844 48.8292L108.853 48.8383L108.862 48.8471L109.56 48.1311ZM92.7106 48.1311L93.4178 48.8383L93.4266 48.8292L92.7106 48.1311ZM113.964 40.4724V35.4518H111.964V40.4724H113.964ZM112.964 36.4518H123.941V34.4518H112.964V36.4518ZM122.941 35.4518V78H124.941V35.4518H122.941ZM123.941 77H112.964V79H123.941V77ZM113.964 78V72.9793H111.964V78H113.964ZM112.181 72.3572C109.106 76.2276 104.788 78.1914 99.0929 78.1914V80.1914C105.311 80.1914 110.241 78.0137 113.747 73.6014L112.181 72.3572ZM99.0929 78.1914C93.7085 78.1914 89.088 76.159 85.1822 72.0363L83.7303 73.4118C87.9938 77.9122 93.131 80.1914 99.0929 80.1914V78.1914ZM85.1914 72.0461C81.3447 67.8743 79.4144 62.7883 79.4144 56.7259H77.4144C77.4144 63.2578 79.5121 68.8372 83.7211 73.4019L85.1914 72.0461ZM79.4144 56.7259C79.4144 50.7228 81.343 45.6644 85.1914 41.4907L83.7211 40.1349C79.5137 44.6979 77.4144 50.2481 77.4144 56.7259H79.4144ZM85.1867 41.4958C89.0937 37.3175 93.713 35.2604 99.0929 35.2604V33.2604C93.1265 33.2604 87.9881 35.5716 83.7258 40.1298L85.1867 41.4958ZM99.0929 35.2604C104.788 35.2604 109.106 37.2241 112.181 41.0945L113.747 39.8504C110.241 35.438 105.311 33.2604 99.0929 33.2604V35.2604ZM92.0035 66.1128C94.421 68.5303 97.4918 69.7245 101.135 69.7245V67.7245C97.9709 67.7245 95.4253 66.7062 93.4177 64.6986L92.0035 66.1128ZM101.135 69.7245C104.779 69.7245 107.849 68.5303 110.267 66.1128L108.853 64.6986C106.845 66.7062 104.299 67.7245 101.135 67.7245V69.7245ZM110.267 66.1128C112.743 63.6371 113.964 60.4804 113.964 56.7259H111.964C111.964 60.006 110.915 62.6358 108.853 64.6986L110.267 66.1128ZM113.964 56.7259C113.964 52.9715 112.742 49.8374 110.258 47.4151L108.862 48.8471C110.916 50.8498 111.964 53.4456 111.964 56.7259H113.964ZM110.276 47.433C107.86 44.9554 104.786 43.7273 101.135 43.7273V45.7273C104.292 45.7273 106.834 46.7683 108.844 48.8292L110.276 47.433ZM101.135 43.7273C97.4839 43.7273 94.4103 44.9554 91.9946 47.433L93.4266 48.8292C95.436 46.7683 97.9788 45.7273 101.135 45.7273V43.7273ZM92.0035 47.424C89.5795 49.848 88.3919 52.9793 88.3919 56.7259H90.3919C90.3919 53.4378 91.4167 50.8392 93.4177 48.8382L92.0035 47.424ZM88.3919 56.7259C88.3919 60.4728 89.5793 63.6266 91.9946 66.1038L93.4266 64.7076C91.4169 62.6464 90.3919 60.0136 90.3919 56.7259H88.3919ZM190.484 39.0258L189.745 39.6992L189.752 39.7063L190.484 39.0258ZM194.91 78V79H195.91V78H194.91ZM183.932 78H182.932V79H183.932V78ZM170.912 46.9398L170.155 46.2868L170.148 46.2945L170.142 46.3022L170.912 46.9398ZM168.87 78V79H169.87V78H168.87ZM157.893 78H156.893V79H157.893V78ZM156.02 46.5994L155.27 47.26L156.02 46.5994ZM144.873 47.0249L144.117 46.3699L144.115 46.3719L144.873 47.0249ZM142.745 78V79H143.745V78H142.745ZM131.768 78H130.768V79H131.768V78ZM131.768 35.4518V34.4518H130.768V35.4518H131.768ZM142.745 35.4518H143.745V34.4518H142.745V35.4518ZM142.745 39.9619H141.745V43.2443L143.576 40.5194L142.745 39.9619ZM166.147 40.3873L165.288 40.9001L166.092 42.2456L166.974 40.95L166.147 40.3873ZM178.826 35.2604C183.466 35.2604 187.068 36.7595 189.745 39.6991L191.224 38.3525C188.114 34.9382 183.944 33.2604 178.826 33.2604V35.2604ZM189.752 39.7063C192.493 42.6579 193.91 46.649 193.91 51.7903H195.91C195.91 46.2661 194.376 41.7476 191.217 38.3454L189.752 39.7063ZM193.91 51.7903V78H195.91V51.7903H193.91ZM194.91 77H183.932V79H194.91V77ZM184.932 78V52.5561H182.932V78H184.932ZM184.932 52.5561C184.932 49.8463 184.268 47.5953 182.811 45.9388L181.309 47.26C182.348 48.44 182.932 50.1602 182.932 52.5561H184.932ZM182.811 45.9388C181.335 44.2615 179.277 43.472 176.784 43.472V45.472C178.829 45.472 180.289 46.1008 181.309 47.26L182.811 45.9388ZM176.784 43.472C174.045 43.472 171.793 44.3872 170.155 46.2868L171.67 47.5927C172.869 46.202 174.531 45.472 176.784 45.472V43.472ZM170.142 46.3022C168.577 48.1934 167.87 50.8392 167.87 54.0879H169.87C169.87 51.0961 170.525 48.9766 171.683 47.5774L170.142 46.3022ZM167.87 54.0879V78H169.87V54.0879H167.87ZM168.87 77H157.893V79H168.87V77ZM158.893 78V52.5561H156.893V78H158.893ZM158.893 52.5561C158.893 49.8463 158.229 47.5953 156.771 45.9388L155.27 47.26C156.308 48.44 156.893 50.1602 156.893 52.5561H158.893ZM156.771 45.9388C155.295 44.2615 153.238 43.472 150.744 43.472V45.472C152.789 45.472 154.25 46.1008 155.27 47.26L156.771 45.9388ZM150.744 43.472C148.042 43.472 145.799 44.4291 144.117 46.3699L145.628 47.6798C146.896 46.2168 148.568 45.472 150.744 45.472V43.472ZM144.115 46.3719C142.487 48.2609 141.745 50.8821 141.745 54.0879H143.745C143.745 51.1667 144.422 49.0793 145.63 47.6778L144.115 46.3719ZM141.745 54.0879V78H143.745V54.0879H141.745ZM142.745 77H131.768V79H142.745V77ZM132.768 78V35.4518H130.768V78H132.768ZM131.768 36.4518H142.745V34.4518H131.768V36.4518ZM141.745 35.4518V39.9619H143.745V35.4518H141.745ZM143.576 40.5194C145.91 37.0439 149.511 35.2604 154.574 35.2604V33.2604C148.971 33.2604 144.687 35.2779 141.915 39.4043L143.576 40.5194ZM154.574 35.2604C159.544 35.2604 163.052 37.1552 165.288 40.9001L167.005 39.8746C164.363 35.4502 160.156 33.2604 154.574 33.2604V35.2604ZM166.974 40.95C169.537 37.1829 173.427 35.2604 178.826 35.2604V33.2604C172.879 33.2604 168.316 35.4226 165.32 39.8247L166.974 40.95Z" fill="#98ABEE" mask="url(#path-1-outside-1_1527_106)"/>
<mask id="mask0_1527_106" style="mask-type:alpha" maskUnits="userSpaceOnUse" x="1" y="23" width="194" height="57">
<mask id="path-3-outside-2_1527_106" maskUnits="userSpaceOnUse" x="0" y="22" width="196" height="59" fill="black">
<rect fill="white" y="22" width="196" height="59"/>
<path d="M29.3583 35.4518V46.0037H19.7424V63.7038C19.7424 65.1788 20.1111 66.2567 20.8486 66.9375C21.5861 67.6182 22.664 68.0153 24.0823 68.1288C25.5006 68.1855 27.2592 68.1572 29.3583 68.0437V78C21.9265 78.851 16.6222 78.1702 13.4452 75.9577C10.325 73.6884 8.76494 69.6038 8.76494 63.7038V46.0037H1.36154V35.4518H8.76494V26.857L19.7424 23.5382V35.4518H29.3583ZM74.9979 61.236H42.9166C44.3348 66.5687 48.3344 69.2351 54.9152 69.2351C59.1133 69.2351 62.2902 67.8168 64.446 64.9802L73.296 70.086C69.0979 76.1562 62.9142 79.1914 54.745 79.1914C47.7103 79.1914 42.0656 77.0639 37.8108 72.8091C33.5559 68.5543 31.4285 63.1932 31.4285 56.7259C31.4285 50.372 33.5276 45.0393 37.7257 40.7277C41.867 36.4162 47.2565 34.2604 53.894 34.2604C60.1911 34.2604 65.3253 36.4162 69.2965 40.7277C73.3811 45.0393 75.4234 50.372 75.4234 56.7259C75.4234 57.9172 75.2816 59.4206 74.9979 61.236ZM42.7464 52.7263H64.446C63.8219 49.9465 62.5455 47.8191 60.6166 46.3441C58.7445 44.8691 56.5036 44.1316 53.894 44.1316C50.944 44.1316 48.5046 44.8975 46.5757 46.4292C44.6468 47.9042 43.3704 50.0033 42.7464 52.7263ZM112.964 40.4724V35.4518H123.941V78H112.964V72.9793C109.673 77.1207 105.05 79.1914 99.0929 79.1914C93.4198 79.1914 88.5409 77.0356 84.4563 72.724C80.4284 68.3557 78.4144 63.023 78.4144 56.7259C78.4144 50.4855 80.4284 45.1811 84.4563 40.8128C88.5409 36.4445 93.4198 34.2604 99.0929 34.2604C105.05 34.2604 109.673 36.3311 112.964 40.4724ZM92.7106 65.4057C94.9231 67.6182 97.7313 68.7245 101.135 68.7245C104.539 68.7245 107.347 67.6182 109.56 65.4057C111.829 63.1365 112.964 60.2432 112.964 56.7259C112.964 53.2086 111.829 50.3436 109.56 48.1311C107.347 45.8619 104.539 44.7273 101.135 44.7273C97.7313 44.7273 94.9231 45.8619 92.7106 48.1311C90.4981 50.3436 89.3919 53.2086 89.3919 56.7259C89.3919 60.2432 90.4981 63.1365 92.7106 65.4057ZM178.826 34.2604C183.705 34.2604 187.591 35.8489 190.485 39.0258C193.435 42.2027 194.91 46.4576 194.91 51.7903V78H183.932V52.5561C183.932 50.0033 183.308 48.0177 182.06 46.5994C180.812 45.1811 179.053 44.472 176.784 44.472C174.288 44.472 172.331 45.2946 170.912 46.9398C169.551 48.585 168.87 50.9677 168.87 54.0879V78H157.893V52.5561C157.893 50.0033 157.269 48.0177 156.02 46.5994C154.772 45.1811 153.014 44.472 150.744 44.472C148.305 44.472 146.348 45.3229 144.873 47.0249C143.455 48.6701 142.745 51.0244 142.745 54.0879V78H131.768V35.4518H142.745V39.9619C145.298 36.1609 149.241 34.2604 154.574 34.2604C159.85 34.2604 163.707 36.3027 166.147 40.3873C168.927 36.3027 173.153 34.2604 178.826 34.2604Z"/>
</mask>
<path d="M29.3583 35.4518H30.3583V34.4518H29.3583V35.4518ZM29.3583 46.0037V47.0037H30.3583V46.0037H29.3583ZM19.7424 46.0037V45.0037H18.7424V46.0037H19.7424ZM20.8486 66.9375L20.1704 67.6723L20.8486 66.9375ZM24.0823 68.1288L24.0026 69.1256L24.0224 69.1272L24.0423 69.128L24.0823 68.1288ZM29.3583 68.0437H30.3583V66.9882L29.3043 67.0452L29.3583 68.0437ZM29.3583 78L29.4721 78.9935L30.3583 78.892V78H29.3583ZM13.4452 75.9577L12.8571 76.7664L12.8654 76.7724L12.8738 76.7783L13.4452 75.9577ZM8.76494 46.0037H9.76494V45.0037H8.76494V46.0037ZM1.36154 46.0037H0.361544V47.0037H1.36154V46.0037ZM1.36154 35.4518V34.4518H0.361544V35.4518H1.36154ZM8.76494 35.4518V36.4518H9.76494V35.4518H8.76494ZM8.76494 26.857L8.47555 25.8998L7.76494 26.1146V26.857H8.76494ZM19.7424 23.5382H20.7424V22.1912L19.453 22.581L19.7424 23.5382ZM19.7424 35.4518H18.7424V36.4518H19.7424V35.4518ZM28.3583 35.4518V46.0037H30.3583V35.4518H28.3583ZM29.3583 45.0037H19.7424V47.0037H29.3583V45.0037ZM18.7424 46.0037V63.7038H20.7424V46.0037H18.7424ZM18.7424 63.7038C18.7424 65.3257 19.1475 66.728 20.1704 67.6723L21.5269 66.2027C21.0748 65.7853 20.7424 65.0319 20.7424 63.7038H18.7424ZM20.1704 67.6723C21.1289 68.557 22.4521 69.0016 24.0026 69.1256L24.1621 67.132C22.876 67.0291 22.0434 66.6794 21.5269 66.2027L20.1704 67.6723ZM24.0423 69.128C25.5029 69.1864 27.2953 69.1567 29.4123 69.0423L29.3043 67.0452C27.2232 67.1577 25.4983 67.1846 24.1223 67.1296L24.0423 69.128ZM28.3583 68.0437V78H30.3583V68.0437H28.3583ZM29.2445 77.0065C21.859 77.8522 16.8766 77.1287 14.0167 75.1371L12.8738 76.7783C16.3678 79.2117 21.994 79.8498 29.4721 78.9935L29.2445 77.0065ZM14.0334 75.1489C11.2868 73.1514 9.76494 69.459 9.76494 63.7038H7.76494C7.76494 69.7487 9.36329 74.2255 12.8571 76.7664L14.0334 75.1489ZM9.76494 63.7038V46.0037H7.76494V63.7038H9.76494ZM8.76494 45.0037H1.36154V47.0037H8.76494V45.0037ZM2.36154 46.0037V35.4518H0.361544V46.0037H2.36154ZM1.36154 36.4518H8.76494V34.4518H1.36154V36.4518ZM9.76494 35.4518V26.857H7.76494V35.4518H9.76494ZM9.05433 27.8142L20.0318 24.4955L19.453 22.581L8.47555 25.8998L9.05433 27.8142ZM18.7424 23.5382V35.4518H20.7424V23.5382H18.7424ZM19.7424 36.4518H29.3583V34.4518H19.7424V36.4518ZM74.9979 61.236V62.236H75.8538L75.9859 61.3904L74.9979 61.236ZM42.9166 61.236V60.236H41.6158L41.9501 61.493L42.9166 61.236ZM64.446 64.9802L64.9457 64.1141L64.1828 63.6739L63.6498 64.3752L64.446 64.9802ZM73.296 70.086L74.1185 70.6548L74.7358 69.7622L73.7957 69.2198L73.296 70.086ZM37.8108 72.8091L37.1037 73.5162L37.8108 72.8091ZM37.7257 40.7277L38.4422 41.4254L38.4469 41.4205L37.7257 40.7277ZM69.2965 40.7277L68.5608 41.4053L68.5705 41.4155L69.2965 40.7277ZM42.7464 52.7263L41.7716 52.503L41.4913 53.7263H42.7464V52.7263ZM64.446 52.7263V53.7263H65.6953L65.4217 52.5073L64.446 52.7263ZM60.6166 46.3441L59.9977 47.1296L60.0034 47.1341L60.0092 47.1385L60.6166 46.3441ZM46.5757 46.4292L47.1832 47.2236L47.1904 47.218L47.1976 47.2123L46.5757 46.4292ZM74.9979 60.236H42.9166V62.236H74.9979V60.236ZM41.9501 61.493C42.712 64.3577 44.1929 66.5792 46.4252 68.0673C48.6396 69.5436 51.4981 70.2351 54.9152 70.2351V68.2351C51.7514 68.2351 49.3198 67.5933 47.5346 66.4032C45.7673 65.2251 44.5393 63.447 43.883 60.979L41.9501 61.493ZM54.9152 70.2351C59.3629 70.2351 62.8622 68.7168 65.2421 65.5853L63.6498 64.3752C61.7182 66.9168 58.8636 68.2351 54.9152 68.2351V70.2351ZM63.9462 65.8464L72.7963 70.9522L73.7957 69.2198L64.9457 64.1141L63.9462 65.8464ZM72.4735 69.5172C68.4844 75.2853 62.6269 78.1914 54.745 78.1914V80.1914C63.2015 80.1914 69.7114 77.0272 74.1185 70.6548L72.4735 69.5172ZM54.745 78.1914C47.9272 78.1914 42.5535 76.1376 38.5179 72.102L37.1037 73.5162C41.5777 77.9902 47.4935 80.1914 54.745 80.1914V78.1914ZM38.5179 72.102C34.4655 68.0497 32.4285 62.9499 32.4285 56.7259H30.4285C30.4285 63.4365 32.6463 69.0589 37.1037 73.5162L38.5179 72.102ZM32.4285 56.7259C32.4285 50.6165 34.4368 45.539 38.4421 41.4254L37.0092 40.0301C32.6184 44.5396 30.4285 50.1275 30.4285 56.7259H32.4285ZM38.4469 41.4205C42.3779 37.3279 47.4956 35.2604 53.894 35.2604V33.2604C47.0174 33.2604 41.3562 35.5045 37.0045 40.035L38.4469 41.4205ZM53.894 35.2604C59.9349 35.2604 64.7943 37.3157 68.5609 41.4052L70.032 40.0503C65.8563 35.5166 60.4474 33.2604 53.894 33.2604V35.2604ZM68.5705 41.4155C72.4661 45.5275 74.4234 50.6083 74.4234 56.7259H76.4234C76.4234 50.1358 74.2961 44.5511 70.0224 40.04L68.5705 41.4155ZM74.4234 56.7259C74.4234 57.8457 74.2894 59.2931 74.0099 61.0816L75.9859 61.3904C76.2738 59.5481 76.4234 57.9887 76.4234 56.7259H74.4234ZM42.7464 53.7263H64.446V51.7263H42.7464V53.7263ZM65.4217 52.5073C64.7556 49.5401 63.3707 47.1913 61.2241 45.5497L60.0092 47.1385C61.7202 48.4469 62.8883 50.3529 63.4702 52.9454L65.4217 52.5073ZM61.2355 45.5586C59.17 43.9313 56.7055 43.1316 53.894 43.1316V45.1316C56.3018 45.1316 58.319 45.8069 59.9977 47.1296L61.2355 45.5586ZM53.894 43.1316C50.7644 43.1316 48.0926 43.9476 45.9538 45.6461L47.1976 47.2123C48.9165 45.8473 51.1236 45.1316 53.894 45.1316V43.1316ZM45.9683 45.6348C43.8267 47.2725 42.4395 49.5887 41.7716 52.503L43.7211 52.9497C44.3013 50.4179 45.467 48.5359 47.1832 47.2236L45.9683 45.6348ZM112.964 40.4724L112.181 41.0945L113.964 43.3386V40.4724H112.964ZM112.964 35.4518V34.4518H111.964V35.4518H112.964ZM123.941 35.4518H124.941V34.4518H123.941V35.4518ZM123.941 78V79H124.941V78H123.941ZM112.964 78H111.964V79H112.964V78ZM112.964 72.9793H113.964V70.1132L112.181 72.3572L112.964 72.9793ZM84.4563 72.724L83.721 73.402L83.7303 73.4118L84.4563 72.724ZM84.4563 40.8128L83.7258 40.1298L83.7211 40.1349L84.4563 40.8128ZM92.7106 65.4057L91.9946 66.1039L92.0035 66.1128L92.7106 65.4057ZM109.56 65.4057L110.267 66.1128L109.56 65.4057ZM109.56 48.1311L108.844 48.8292L108.853 48.8383L108.862 48.8471L109.56 48.1311ZM92.7106 48.1311L93.4178 48.8383L93.4266 48.8292L92.7106 48.1311ZM113.964 40.4724V35.4518H111.964V40.4724H113.964ZM112.964 36.4518H123.941V34.4518H112.964V36.4518ZM122.941 35.4518V78H124.941V35.4518H122.941ZM123.941 77H112.964V79H123.941V77ZM113.964 78V72.9793H111.964V78H113.964ZM112.181 72.3572C109.106 76.2276 104.788 78.1914 99.0929 78.1914V80.1914C105.311 80.1914 110.241 78.0137 113.747 73.6014L112.181 72.3572ZM99.0929 78.1914C93.7085 78.1914 89.088 76.159 85.1822 72.0363L83.7303 73.4118C87.9938 77.9122 93.131 80.1914 99.0929 80.1914V78.1914ZM85.1914 72.0461C81.3447 67.8743 79.4144 62.7883 79.4144 56.7259H77.4144C77.4144 63.2578 79.5121 68.8372 83.7211 73.4019L85.1914 72.0461ZM79.4144 56.7259C79.4144 50.7228 81.343 45.6644 85.1914 41.4907L83.7211 40.1349C79.5137 44.6979 77.4144 50.2481 77.4144 56.7259H79.4144ZM85.1867 41.4958C89.0937 37.3175 93.713 35.2604 99.0929 35.2604V33.2604C93.1265 33.2604 87.9881 35.5716 83.7258 40.1298L85.1867 41.4958ZM99.0929 35.2604C104.788 35.2604 109.106 37.2241 112.181 41.0945L113.747 39.8504C110.241 35.438 105.311 33.2604 99.0929 33.2604V35.2604ZM92.0035 66.1128C94.421 68.5303 97.4918 69.7245 101.135 69.7245V67.7245C97.9709 67.7245 95.4253 66.7062 93.4177 64.6986L92.0035 66.1128ZM101.135 69.7245C104.779 69.7245 107.849 68.5303 110.267 66.1128L108.853 64.6986C106.845 66.7062 104.299 67.7245 101.135 67.7245V69.7245ZM110.267 66.1128C112.743 63.6371 113.964 60.4804 113.964 56.7259H111.964C111.964 60.006 110.915 62.6358 108.853 64.6986L110.267 66.1128ZM113.964 56.7259C113.964 52.9715 112.742 49.8374 110.258 47.4151L108.862 48.8471C110.916 50.8498 111.964 53.4456 111.964 56.7259H113.964ZM110.276 47.433C107.86 44.9554 104.786 43.7273 101.135 43.7273V45.7273C104.292 45.7273 106.834 46.7683 108.844 48.8292L110.276 47.433ZM101.135 43.7273C97.4839 43.7273 94.4103 44.9554 91.9946 47.433L93.4266 48.8292C95.436 46.7683 97.9788 45.7273 101.135 45.7273V43.7273ZM92.0035 47.424C89.5795 49.848 88.3919 52.9793 88.3919 56.7259H90.3919C90.3919 53.4378 91.4167 50.8392 93.4177 48.8382L92.0035 47.424ZM88.3919 56.7259C88.3919 60.4728 89.5793 63.6266 91.9946 66.1038L93.4266 64.7076C91.4169 62.6464 90.3919 60.0136 90.3919 56.7259H88.3919ZM190.484 39.0258L189.745 39.6992L189.752 39.7063L190.484 39.0258ZM194.91 78V79H195.91V78H194.91ZM183.932 78H182.932V79H183.932V78ZM170.912 46.9398L170.155 46.2868L170.148 46.2945L170.142 46.3022L170.912 46.9398ZM168.87 78V79H169.87V78H168.87ZM157.893 78H156.893V79H157.893V78ZM156.02 46.5994L155.27 47.26L156.02 46.5994ZM144.873 47.0249L144.117 46.3699L144.115 46.3719L144.873 47.0249ZM142.745 78V79H143.745V78H142.745ZM131.768 78H130.768V79H131.768V78ZM131.768 35.4518V34.4518H130.768V35.4518H131.768ZM142.745 35.4518H143.745V34.4518H142.745V35.4518ZM142.745 39.9619H141.745V43.2443L143.576 40.5194L142.745 39.9619ZM166.147 40.3873L165.288 40.9001L166.092 42.2456L166.974 40.95L166.147 40.3873ZM178.826 35.2604C183.466 35.2604 187.068 36.7595 189.745 39.6991L191.224 38.3525C188.114 34.9382 183.944 33.2604 178.826 33.2604V35.2604ZM189.752 39.7063C192.493 42.6579 193.91 46.649 193.91 51.7903H195.91C195.91 46.2661 194.376 41.7476 191.217 38.3454L189.752 39.7063ZM193.91 51.7903V78H195.91V51.7903H193.91ZM194.91 77H183.932V79H194.91V77ZM184.932 78V52.5561H182.932V78H184.932ZM184.932 52.5561C184.932 49.8463 184.268 47.5953 182.811 45.9388L181.309 47.26C182.348 48.44 182.932 50.1602 182.932 52.5561H184.932ZM182.811 45.9388C181.335 44.2615 179.277 43.472 176.784 43.472V45.472C178.829 45.472 180.289 46.1008 181.309 47.26L182.811 45.9388ZM176.784 43.472C174.045 43.472 171.793 44.3872 170.155 46.2868L171.67 47.5927C172.869 46.202 174.531 45.472 176.784 45.472V43.472ZM170.142 46.3022C168.577 48.1934 167.87 50.8392 167.87 54.0879H169.87C169.87 51.0961 170.525 48.9766 171.683 47.5774L170.142 46.3022ZM167.87 54.0879V78H169.87V54.0879H167.87ZM168.87 77H157.893V79H168.87V77ZM158.893 78V52.5561H156.893V78H158.893ZM158.893 52.5561C158.893 49.8463 158.229 47.5953 156.771 45.9388L155.27 47.26C156.308 48.44 156.893 50.1602 156.893 52.5561H158.893ZM156.771 45.9388C155.295 44.2615 153.238 43.472 150.744 43.472V45.472C152.789 45.472 154.25 46.1008 155.27 47.26L156.771 45.9388ZM150.744 43.472C148.042 43.472 145.799 44.4291 144.117 46.3699L145.628 47.6798C146.896 46.2168 148.568 45.472 150.744 45.472V43.472ZM144.115 46.3719C142.487 48.2609 141.745 50.8821 141.745 54.0879H143.745C143.745 51.1667 144.422 49.0793 145.63 47.6778L144.115 46.3719ZM141.745 54.0879V78H143.745V54.0879H141.745ZM142.745 77H131.768V79H142.745V77ZM132.768 78V35.4518H130.768V78H132.768ZM131.768 36.4518H142.745V34.4518H131.768V36.4518ZM141.745 35.4518V39.9619H143.745V35.4518H141.745ZM143.576 40.5194C145.91 37.0439 149.511 35.2604 154.574 35.2604V33.2604C148.971 33.2604 144.687 35.2779 141.915 39.4043L143.576 40.5194ZM154.574 35.2604C159.544 35.2604 163.052 37.1552 165.288 40.9001L167.005 39.8746C164.363 35.4502 160.156 33.2604 154.574 33.2604V35.2604ZM166.974 40.95C169.537 37.1829 173.427 35.2604 178.826 35.2604V33.2604C172.879 33.2604 168.316 35.4226 165.32 39.8247L166.974 40.95Z" fill="#98ABEE" mask="url(#path-3-outside-2_1527_106)"/>
</mask>
<g mask="url(#mask0_1527_106)">
<rect x="152.656" y="-30" width="115" height="167" transform="rotate(30 152.656 -30)" fill="#E1E1E1"/>
</g>
</svg>
