<svg width="106" height="55" viewBox="0 0 106 55" fill="none" xmlns="http://www.w3.org/2000/svg">
<mask id="path-1-outside-1_1235_895" maskUnits="userSpaceOnUse" x="-1" y="10" width="105" height="34" fill="black">
<rect fill="white" x="-1" y="10" width="105" height="34"/>
<path d="M26.5904 20.6251H32.4472L25.6499 42H20.3917L16.4587 29.0468L12.5257 42H7.26748L0.470249 20.6251H6.32698L9.96073 33.7493L13.851 20.6251H19.0665L22.9567 33.792L26.5904 20.6251ZM51.7274 39.3495C49.5329 41.5155 46.8539 42.5985 43.6904 42.5985C40.5269 42.5985 37.8479 41.5155 35.6534 39.3495C33.4874 37.155 32.4044 34.476 32.4044 31.3125C32.4044 28.149 33.4874 25.4843 35.6534 23.3183C37.8479 21.1238 40.5269 20.0266 43.6904 20.0266C46.8539 20.0266 49.5329 21.1238 51.7274 23.3183C53.9219 25.4843 55.0191 28.149 55.0191 31.3125C55.0191 34.476 53.9219 37.155 51.7274 39.3495ZM39.5437 35.5448C40.6551 36.6563 42.0374 37.212 43.6904 37.212C45.3434 37.212 46.7256 36.6563 47.8371 35.5448C48.9486 34.4333 49.5044 33.0225 49.5044 31.3125C49.5044 29.6025 48.9486 28.1918 47.8371 27.0803C46.7256 25.9688 45.3434 25.413 43.6904 25.413C42.0374 25.413 40.6551 25.9688 39.5437 27.0803C38.4607 28.1918 37.9192 29.6025 37.9192 31.3125C37.9192 33.0225 38.4607 34.4333 39.5437 35.5448ZM63.3447 24.3015C63.8577 22.9335 64.6984 21.9075 65.8669 21.2236C67.0639 20.5396 68.3891 20.1976 69.8426 20.1976V26.3535C68.1611 26.154 66.6506 26.496 65.3111 27.3795C64.0002 28.263 63.3447 29.7308 63.3447 31.7828V42H57.8299V20.6251H63.3447V24.3015ZM71.9992 42V10.7926H77.5139V42H71.9992ZM97.6949 12.0751H103.21V42H97.6949V39.4778C96.0704 41.5583 93.7619 42.5985 90.7694 42.5985C87.8909 42.5985 85.4256 41.5155 83.3736 39.3495C81.3501 37.155 80.3384 34.476 80.3384 31.3125C80.3384 28.149 81.3501 25.4843 83.3736 23.3183C85.4256 21.1238 87.8909 20.0266 90.7694 20.0266C93.7619 20.0266 96.0704 21.0668 97.6949 23.1473V12.0751ZM87.5204 35.673C88.6604 36.7845 90.0854 37.3403 91.7954 37.3403C93.5054 37.3403 94.9161 36.7845 96.0276 35.673C97.1391 34.533 97.6949 33.0795 97.6949 31.3125C97.6949 29.5455 97.1391 28.1063 96.0276 26.9948C94.9161 25.8548 93.5054 25.2848 91.7954 25.2848C90.0854 25.2848 88.6604 25.8548 87.5204 26.9948C86.4089 28.1063 85.8531 29.5455 85.8531 31.3125C85.8531 33.0795 86.4089 34.533 87.5204 35.673Z"/>
</mask>
<path d="M26.5904 20.6251V20.1227H26.2079L26.1062 20.4914L26.5904 20.6251ZM32.4472 20.6251L32.9259 20.7773L33.1341 20.1227H32.4472V20.6251ZM25.6499 42V42.5024H26.0173L26.1287 42.1522L25.6499 42ZM20.3917 42L19.911 42.146L20.0192 42.5024H20.3917V42ZM16.4587 29.0468L16.9394 28.9008L16.4587 27.3177L15.978 28.9008L16.4587 29.0468ZM12.5257 42V42.5024H12.8982L13.0064 42.146L12.5257 42ZM7.26748 42L6.78874 42.1522L6.90008 42.5024H7.26748V42ZM0.470249 20.6251V20.1227H-0.216664L-0.00849726 20.7773L0.470249 20.6251ZM6.32698 20.6251L6.81114 20.491L6.70916 20.1227H6.32698V20.6251ZM9.96073 33.7493L9.47657 33.8833L9.94426 35.5725L10.4424 33.892L9.96073 33.7493ZM13.851 20.6251V20.1227H13.4759L13.3693 20.4823L13.851 20.6251ZM19.0665 20.6251L19.5482 20.4827L19.4419 20.1227H19.0665V20.6251ZM22.9567 33.792L22.4749 33.9344L22.9732 35.6207L23.441 33.9257L22.9567 33.792ZM26.5904 21.1274H32.4472V20.1227H26.5904V21.1274ZM31.9684 20.4728L25.1712 41.8478L26.1287 42.1522L32.9259 20.7773L31.9684 20.4728ZM25.6499 41.4976H20.3917V42.5024H25.6499V41.4976ZM20.8724 41.854L16.9394 28.9008L15.978 29.1927L19.911 42.146L20.8724 41.854ZM15.978 28.9008L12.045 41.854L13.0064 42.146L16.9394 29.1927L15.978 28.9008ZM12.5257 41.4976H7.26748V42.5024H12.5257V41.4976ZM7.74623 41.8478L0.948995 20.4728L-0.00849726 20.7773L6.78874 42.1522L7.74623 41.8478ZM0.470249 21.1274H6.32698V20.1227H0.470249V21.1274ZM5.84283 20.7591L9.47657 33.8833L10.4449 33.6152L6.81114 20.491L5.84283 20.7591ZM10.4424 33.892L14.3326 20.7678L13.3693 20.4823L9.47907 33.6065L10.4424 33.892ZM13.851 21.1274H19.0665V20.1227H13.851V21.1274ZM18.5847 20.7674L22.4749 33.9344L23.4385 33.6497L19.5482 20.4827L18.5847 20.7674ZM23.441 33.9257L27.0747 20.7587L26.1062 20.4914L22.4724 33.6584L23.441 33.9257ZM51.7274 39.3495L52.0803 39.7071L52.0826 39.7047L51.7274 39.3495ZM35.6534 39.3495L35.2958 39.7024L35.3005 39.7071L35.6534 39.3495ZM35.6534 23.3183L36.0086 23.6735L35.6534 23.3183ZM51.7274 23.3183L51.3721 23.6735L51.3745 23.6758L51.7274 23.3183ZM39.5437 35.5448L39.1838 35.8954L39.1884 35.9L39.5437 35.5448ZM47.8371 35.5448L47.4819 35.1895L47.8371 35.5448ZM47.8371 27.0803L47.4819 27.4355L47.8371 27.0803ZM39.5437 27.0803L39.1884 26.725L39.1838 26.7297L39.5437 27.0803ZM51.3745 38.992C49.2767 41.0625 46.7256 42.0961 43.6904 42.0961V43.1009C46.9822 43.1009 49.7891 41.9685 52.0803 39.7071L51.3745 38.992ZM43.6904 42.0961C40.6552 42.0961 38.1041 41.0625 36.0063 38.992L35.3005 39.7071C37.5917 41.9685 40.3986 43.1009 43.6904 43.1009V42.0961ZM36.011 38.9966C33.9404 36.8988 32.9068 34.3478 32.9068 31.3125H31.9021C31.9021 34.6043 33.0344 37.4112 35.2959 39.7024L36.011 38.9966ZM32.9068 31.3125C32.9068 28.2774 33.9403 25.7419 36.0086 23.6735L35.2982 22.9631C33.0346 25.2267 31.9021 28.0207 31.9021 31.3125H32.9068ZM36.0086 23.6735C38.1069 21.5753 40.6572 20.5289 43.6904 20.5289V19.5242C40.3966 19.5242 37.5889 20.6723 35.2982 22.9631L36.0086 23.6735ZM43.6904 20.5289C46.7235 20.5289 49.2739 21.5753 51.3721 23.6735L52.0826 22.9631C49.7919 20.6723 46.9842 19.5242 43.6904 19.5242V20.5289ZM51.3745 23.6758C53.4706 25.7447 54.5167 28.2795 54.5167 31.3125H55.5215C55.5215 28.0186 54.3732 25.2239 52.0803 22.9608L51.3745 23.6758ZM54.5167 31.3125C54.5167 34.3457 53.4704 36.896 51.3721 38.9943L52.0826 39.7047C54.3733 37.414 55.5215 34.6064 55.5215 31.3125H54.5167ZM39.1884 35.9C40.3994 37.111 41.9118 37.7144 43.6904 37.7144V36.7096C42.163 36.7096 40.9109 36.2015 39.8989 35.1895L39.1884 35.9ZM43.6904 37.7144C45.469 37.7144 46.9814 37.111 48.1924 35.9L47.4819 35.1895C46.4699 36.2015 45.2178 36.7096 43.6904 36.7096V37.7144ZM48.1924 35.9C49.4068 34.6855 50.0067 33.1429 50.0067 31.3125H49.002C49.002 32.9022 48.4904 34.181 47.4819 35.1895L48.1924 35.9ZM50.0067 31.3125C50.0067 29.4822 49.4068 27.9395 48.1924 26.7251L47.4819 27.4355C48.4904 28.4441 49.002 29.7229 49.002 31.3125H50.0067ZM48.1924 26.7251C46.9814 25.5141 45.469 24.9107 43.6904 24.9107V25.9154C45.2178 25.9154 46.4699 26.4235 47.4819 27.4355L48.1924 26.7251ZM43.6904 24.9107C41.9118 24.9107 40.3994 25.5141 39.1884 26.7251L39.8989 27.4355C40.9109 26.4235 42.163 25.9154 43.6904 25.9154V24.9107ZM39.1838 26.7297C37.9997 27.945 37.4168 29.4861 37.4168 31.3125H38.4215C38.4215 29.7189 38.9216 28.4386 39.9035 27.4309L39.1838 26.7297ZM37.4168 31.3125C37.4168 33.1389 37.9997 34.6801 39.1838 35.8954L39.9035 35.1942C38.9216 34.1865 38.4215 32.9061 38.4215 31.3125H37.4168ZM63.3447 24.3015H62.8423L63.815 24.4779L63.3447 24.3015ZM65.8669 21.2236L65.6176 20.7873L65.6131 20.79L65.8669 21.2236ZM69.8426 20.1976H70.345V19.6952H69.8426V20.1976ZM69.8426 26.3535L69.7834 26.8524L70.345 26.919V26.3535H69.8426ZM65.3111 27.3795L65.0345 26.9602L65.0304 26.9629L65.3111 27.3795ZM63.3447 42V42.5024H63.847V42H63.3447ZM57.8299 42H57.3275V42.5024H57.8299V42ZM57.8299 20.6251V20.1227H57.3275V20.6251H57.8299ZM63.3447 20.6251H63.847V20.1227H63.3447V20.6251ZM63.815 24.4779C64.291 23.2088 65.0599 22.278 66.1207 21.6571L65.6131 20.79C64.3369 21.5371 63.4244 22.6583 62.8743 24.1251L63.815 24.4779ZM66.1161 21.6597C67.2331 21.0215 68.4716 20.6999 69.8426 20.6999V19.6952C68.3066 19.6952 66.8947 20.0576 65.6177 20.7874L66.1161 21.6597ZM69.3403 20.1976V26.3535H70.345V20.1976H69.3403ZM69.9018 25.8547C68.1096 25.642 66.4789 26.0075 65.0345 26.9602L65.5878 27.7989C66.8224 26.9845 68.2127 26.666 69.7834 26.8524L69.9018 25.8547ZM65.0304 26.9629C63.5404 27.9671 62.8423 29.6193 62.8423 31.7828H63.847C63.847 29.8423 64.46 28.559 65.5919 27.7961L65.0304 26.9629ZM62.8423 31.7828V42H63.847V31.7828H62.8423ZM63.3447 41.4976H57.8299V42.5024H63.3447V41.4976ZM58.3323 42V20.6251H57.3275V42H58.3323ZM57.8299 21.1274H63.3447V20.1227H57.8299V21.1274ZM62.8423 20.6251V24.3015H63.847V20.6251H62.8423ZM71.9992 42H71.4968V42.5024H71.9992V42ZM71.9992 10.7926V10.2902H71.4968V10.7926H71.9992ZM77.5139 10.7926H78.0163V10.2902H77.5139V10.7926ZM77.5139 42V42.5024H78.0163V42H77.5139ZM72.5015 42V10.7926H71.4968V42H72.5015ZM71.9992 11.2949H77.5139V10.2902H71.9992V11.2949ZM77.0115 10.7926V42H78.0163V10.7926H77.0115ZM77.5139 41.4976H71.9992V42.5024H77.5139V41.4976ZM97.6949 12.0751V11.5727H97.1925V12.0751H97.6949ZM103.21 12.0751H103.712V11.5727H103.21V12.0751ZM103.21 42V42.5024H103.712V42H103.21ZM97.6949 42H97.1925V42.5024H97.6949V42ZM97.6949 39.4778H98.1972V38.0181L97.2989 39.1686L97.6949 39.4778ZM83.3736 39.3495L83.0043 39.6901L83.0089 39.695L83.3736 39.3495ZM83.3736 23.3183L83.0067 22.9752L83.0065 22.9753L83.3736 23.3183ZM97.6949 23.1473L97.2989 23.4565L98.1972 24.607V23.1473H97.6949ZM87.5204 35.673L87.1606 36.0238L87.1697 36.0327L87.5204 35.673ZM96.0276 35.673L96.3829 36.0283L96.3873 36.0237L96.0276 35.673ZM96.0276 26.9948L95.6679 27.3455L95.6724 27.35L96.0276 26.9948ZM87.5204 26.9948L87.1652 26.6396L87.5204 26.9948ZM97.6949 12.5774H103.21V11.5727H97.6949V12.5774ZM102.707 12.0751V42H103.712V12.0751H102.707ZM103.21 41.4976H97.6949V42.5024H103.21V41.4976ZM98.1972 42V39.4778H97.1925V42H98.1972ZM97.2989 39.1686C95.7832 41.1098 93.6307 42.0961 90.7694 42.0961V43.1009C93.8931 43.1009 96.3575 42.0067 98.0908 39.7869L97.2989 39.1686ZM90.7694 42.0961C88.0344 42.0961 85.6994 41.074 83.7383 39.004L83.0089 39.695C85.1519 41.957 87.7474 43.1009 90.7694 43.1009V42.0961ZM83.743 39.009C81.8105 36.9131 80.8408 34.3581 80.8408 31.3125H79.836C79.836 34.5939 80.8898 37.3969 83.0043 39.6901L83.743 39.009ZM80.8408 31.3125C80.8408 28.267 81.8104 25.7276 83.7407 23.6612L83.0065 22.9753C80.8899 25.241 79.836 28.0311 79.836 31.3125H80.8408ZM83.7406 23.6614C85.7023 21.5635 88.0367 20.5289 90.7694 20.5289V19.5242C87.7451 19.5242 85.149 20.6841 83.0067 22.9752L83.7406 23.6614ZM90.7694 20.5289C93.6307 20.5289 95.7832 21.5153 97.2989 23.4565L98.0908 22.8381C96.3575 20.6183 93.8931 19.5242 90.7694 19.5242V20.5289ZM98.1972 23.1473V12.0751H97.1925V23.1473H98.1972ZM87.1697 36.0327C88.4109 37.2429 89.965 37.8426 91.7954 37.8426V36.8379C90.2057 36.8379 88.9099 36.3261 87.8711 35.3133L87.1697 36.0327ZM91.7954 37.8426C93.6257 37.8426 95.1684 37.2427 96.3828 36.0282L95.6724 35.3178C94.6638 36.3263 93.385 36.8379 91.7954 36.8379V37.8426ZM96.3873 36.0237C97.6007 34.7792 98.1972 33.1949 98.1972 31.3125H97.1925C97.1925 32.9642 96.6775 34.2868 95.6679 35.3223L96.3873 36.0237ZM98.1972 31.3125C98.1972 29.4303 97.6006 27.8573 96.3828 26.6396L95.6724 27.35C96.6776 28.3553 97.1925 29.6607 97.1925 31.3125H98.1972ZM96.3873 26.6441C95.1738 25.3994 93.6297 24.7824 91.7954 24.7824V25.7872C93.3811 25.7872 94.6585 26.3102 95.6679 27.3455L96.3873 26.6441ZM91.7954 24.7824C89.9611 24.7824 88.4055 25.3992 87.1652 26.6396L87.8756 27.35C88.9152 26.3104 90.2096 25.7872 91.7954 25.7872V24.7824ZM87.1652 26.6396C85.9474 27.8573 85.3508 29.4303 85.3508 31.3125H86.3555C86.3555 29.6607 86.8704 28.3553 87.8756 27.35L87.1652 26.6396ZM85.3508 31.3125C85.3508 33.1949 85.9473 34.7792 87.1607 36.0237L87.8801 35.3223C86.8705 34.2868 86.3555 32.9642 86.3555 31.3125H85.3508Z" fill="#98ABEE" mask="url(#path-1-outside-1_1235_895)"/>
<mask id="mask0_1235_895" style="mask-type:alpha" maskUnits="userSpaceOnUse" x="0" y="10" width="104" height="33">
<mask id="path-3-outside-2_1235_895" maskUnits="userSpaceOnUse" x="-1" y="10" width="105" height="34" fill="black">
<rect fill="white" x="-1" y="10" width="105" height="34"/>
<path d="M26.5904 20.6251H32.4472L25.6499 42H20.3917L16.4587 29.0468L12.5257 42H7.26748L0.470249 20.6251H6.32698L9.96073 33.7493L13.851 20.6251H19.0665L22.9567 33.792L26.5904 20.6251ZM51.7274 39.3495C49.5329 41.5155 46.8539 42.5985 43.6904 42.5985C40.5269 42.5985 37.8479 41.5155 35.6534 39.3495C33.4874 37.155 32.4044 34.476 32.4044 31.3125C32.4044 28.149 33.4874 25.4843 35.6534 23.3183C37.8479 21.1238 40.5269 20.0266 43.6904 20.0266C46.8539 20.0266 49.5329 21.1238 51.7274 23.3183C53.9219 25.4843 55.0191 28.149 55.0191 31.3125C55.0191 34.476 53.9219 37.155 51.7274 39.3495ZM39.5437 35.5448C40.6551 36.6563 42.0374 37.212 43.6904 37.212C45.3434 37.212 46.7256 36.6563 47.8371 35.5448C48.9486 34.4333 49.5044 33.0225 49.5044 31.3125C49.5044 29.6025 48.9486 28.1918 47.8371 27.0803C46.7256 25.9688 45.3434 25.413 43.6904 25.413C42.0374 25.413 40.6551 25.9688 39.5437 27.0803C38.4607 28.1918 37.9192 29.6025 37.9192 31.3125C37.9192 33.0225 38.4607 34.4333 39.5437 35.5448ZM63.3447 24.3015C63.8577 22.9335 64.6984 21.9075 65.8669 21.2236C67.0639 20.5396 68.3891 20.1976 69.8426 20.1976V26.3535C68.1611 26.154 66.6506 26.496 65.3111 27.3795C64.0002 28.263 63.3447 29.7308 63.3447 31.7828V42H57.8299V20.6251H63.3447V24.3015ZM71.9992 42V10.7926H77.5139V42H71.9992ZM97.6949 12.0751H103.21V42H97.6949V39.4778C96.0704 41.5583 93.7619 42.5985 90.7694 42.5985C87.8909 42.5985 85.4256 41.5155 83.3736 39.3495C81.3501 37.155 80.3384 34.476 80.3384 31.3125C80.3384 28.149 81.3501 25.4843 83.3736 23.3183C85.4256 21.1238 87.8909 20.0266 90.7694 20.0266C93.7619 20.0266 96.0704 21.0668 97.6949 23.1473V12.0751ZM87.5204 35.673C88.6604 36.7845 90.0854 37.3403 91.7954 37.3403C93.5054 37.3403 94.9161 36.7845 96.0276 35.673C97.1391 34.533 97.6949 33.0795 97.6949 31.3125C97.6949 29.5455 97.1391 28.1063 96.0276 26.9948C94.9161 25.8548 93.5054 25.2848 91.7954 25.2848C90.0854 25.2848 88.6604 25.8548 87.5204 26.9948C86.4089 28.1063 85.8531 29.5455 85.8531 31.3125C85.8531 33.0795 86.4089 34.533 87.5204 35.673Z"/>
</mask>
<path d="M26.5904 20.6251V20.1227H26.2079L26.1062 20.4914L26.5904 20.6251ZM32.4472 20.6251L32.9259 20.7773L33.1341 20.1227H32.4472V20.6251ZM25.6499 42V42.5024H26.0173L26.1287 42.1522L25.6499 42ZM20.3917 42L19.911 42.146L20.0192 42.5024H20.3917V42ZM16.4587 29.0468L16.9394 28.9008L16.4587 27.3177L15.978 28.9008L16.4587 29.0468ZM12.5257 42V42.5024H12.8982L13.0064 42.146L12.5257 42ZM7.26748 42L6.78874 42.1522L6.90008 42.5024H7.26748V42ZM0.470249 20.6251V20.1227H-0.216664L-0.00849726 20.7773L0.470249 20.6251ZM6.32698 20.6251L6.81114 20.491L6.70916 20.1227H6.32698V20.6251ZM9.96073 33.7493L9.47657 33.8833L9.94426 35.5725L10.4424 33.892L9.96073 33.7493ZM13.851 20.6251V20.1227H13.4759L13.3693 20.4823L13.851 20.6251ZM19.0665 20.6251L19.5482 20.4827L19.4419 20.1227H19.0665V20.6251ZM22.9567 33.792L22.4749 33.9344L22.9732 35.6207L23.441 33.9257L22.9567 33.792ZM26.5904 21.1274H32.4472V20.1227H26.5904V21.1274ZM31.9684 20.4728L25.1712 41.8478L26.1287 42.1522L32.9259 20.7773L31.9684 20.4728ZM25.6499 41.4976H20.3917V42.5024H25.6499V41.4976ZM20.8724 41.854L16.9394 28.9008L15.978 29.1927L19.911 42.146L20.8724 41.854ZM15.978 28.9008L12.045 41.854L13.0064 42.146L16.9394 29.1927L15.978 28.9008ZM12.5257 41.4976H7.26748V42.5024H12.5257V41.4976ZM7.74623 41.8478L0.948995 20.4728L-0.00849726 20.7773L6.78874 42.1522L7.74623 41.8478ZM0.470249 21.1274H6.32698V20.1227H0.470249V21.1274ZM5.84283 20.7591L9.47657 33.8833L10.4449 33.6152L6.81114 20.491L5.84283 20.7591ZM10.4424 33.892L14.3326 20.7678L13.3693 20.4823L9.47907 33.6065L10.4424 33.892ZM13.851 21.1274H19.0665V20.1227H13.851V21.1274ZM18.5847 20.7674L22.4749 33.9344L23.4385 33.6497L19.5482 20.4827L18.5847 20.7674ZM23.441 33.9257L27.0747 20.7587L26.1062 20.4914L22.4724 33.6584L23.441 33.9257ZM51.7274 39.3495L52.0803 39.7071L52.0826 39.7047L51.7274 39.3495ZM35.6534 39.3495L35.2958 39.7024L35.3005 39.7071L35.6534 39.3495ZM35.6534 23.3183L36.0086 23.6735L35.6534 23.3183ZM51.7274 23.3183L51.3721 23.6735L51.3745 23.6758L51.7274 23.3183ZM39.5437 35.5448L39.1838 35.8954L39.1884 35.9L39.5437 35.5448ZM47.8371 35.5448L47.4819 35.1895L47.8371 35.5448ZM47.8371 27.0803L47.4819 27.4355L47.8371 27.0803ZM39.5437 27.0803L39.1884 26.725L39.1838 26.7297L39.5437 27.0803ZM51.3745 38.992C49.2767 41.0625 46.7256 42.0961 43.6904 42.0961V43.1009C46.9822 43.1009 49.7891 41.9685 52.0803 39.7071L51.3745 38.992ZM43.6904 42.0961C40.6552 42.0961 38.1041 41.0625 36.0063 38.992L35.3005 39.7071C37.5917 41.9685 40.3986 43.1009 43.6904 43.1009V42.0961ZM36.011 38.9966C33.9404 36.8988 32.9068 34.3478 32.9068 31.3125H31.9021C31.9021 34.6043 33.0344 37.4112 35.2959 39.7024L36.011 38.9966ZM32.9068 31.3125C32.9068 28.2774 33.9403 25.7419 36.0086 23.6735L35.2982 22.9631C33.0346 25.2267 31.9021 28.0207 31.9021 31.3125H32.9068ZM36.0086 23.6735C38.1069 21.5753 40.6572 20.5289 43.6904 20.5289V19.5242C40.3966 19.5242 37.5889 20.6723 35.2982 22.9631L36.0086 23.6735ZM43.6904 20.5289C46.7235 20.5289 49.2739 21.5753 51.3721 23.6735L52.0826 22.9631C49.7919 20.6723 46.9842 19.5242 43.6904 19.5242V20.5289ZM51.3745 23.6758C53.4706 25.7447 54.5167 28.2795 54.5167 31.3125H55.5215C55.5215 28.0186 54.3732 25.2239 52.0803 22.9608L51.3745 23.6758ZM54.5167 31.3125C54.5167 34.3457 53.4704 36.896 51.3721 38.9943L52.0826 39.7047C54.3733 37.414 55.5215 34.6064 55.5215 31.3125H54.5167ZM39.1884 35.9C40.3994 37.111 41.9118 37.7144 43.6904 37.7144V36.7096C42.163 36.7096 40.9109 36.2015 39.8989 35.1895L39.1884 35.9ZM43.6904 37.7144C45.469 37.7144 46.9814 37.111 48.1924 35.9L47.4819 35.1895C46.4699 36.2015 45.2178 36.7096 43.6904 36.7096V37.7144ZM48.1924 35.9C49.4068 34.6855 50.0067 33.1429 50.0067 31.3125H49.002C49.002 32.9022 48.4904 34.181 47.4819 35.1895L48.1924 35.9ZM50.0067 31.3125C50.0067 29.4822 49.4068 27.9395 48.1924 26.7251L47.4819 27.4355C48.4904 28.4441 49.002 29.7229 49.002 31.3125H50.0067ZM48.1924 26.7251C46.9814 25.5141 45.469 24.9107 43.6904 24.9107V25.9154C45.2178 25.9154 46.4699 26.4235 47.4819 27.4355L48.1924 26.7251ZM43.6904 24.9107C41.9118 24.9107 40.3994 25.5141 39.1884 26.7251L39.8989 27.4355C40.9109 26.4235 42.163 25.9154 43.6904 25.9154V24.9107ZM39.1838 26.7297C37.9997 27.945 37.4168 29.4861 37.4168 31.3125H38.4215C38.4215 29.7189 38.9216 28.4386 39.9035 27.4309L39.1838 26.7297ZM37.4168 31.3125C37.4168 33.1389 37.9997 34.6801 39.1838 35.8954L39.9035 35.1942C38.9216 34.1865 38.4215 32.9061 38.4215 31.3125H37.4168ZM63.3447 24.3015H62.8423L63.815 24.4779L63.3447 24.3015ZM65.8669 21.2236L65.6176 20.7873L65.6131 20.79L65.8669 21.2236ZM69.8426 20.1976H70.345V19.6952H69.8426V20.1976ZM69.8426 26.3535L69.7834 26.8524L70.345 26.919V26.3535H69.8426ZM65.3111 27.3795L65.0345 26.9602L65.0304 26.9629L65.3111 27.3795ZM63.3447 42V42.5024H63.847V42H63.3447ZM57.8299 42H57.3275V42.5024H57.8299V42ZM57.8299 20.6251V20.1227H57.3275V20.6251H57.8299ZM63.3447 20.6251H63.847V20.1227H63.3447V20.6251ZM63.815 24.4779C64.291 23.2088 65.0599 22.278 66.1207 21.6571L65.6131 20.79C64.3369 21.5371 63.4244 22.6583 62.8743 24.1251L63.815 24.4779ZM66.1161 21.6597C67.2331 21.0215 68.4716 20.6999 69.8426 20.6999V19.6952C68.3066 19.6952 66.8947 20.0576 65.6177 20.7874L66.1161 21.6597ZM69.3403 20.1976V26.3535H70.345V20.1976H69.3403ZM69.9018 25.8547C68.1096 25.642 66.4789 26.0075 65.0345 26.9602L65.5878 27.7989C66.8224 26.9845 68.2127 26.666 69.7834 26.8524L69.9018 25.8547ZM65.0304 26.9629C63.5404 27.9671 62.8423 29.6193 62.8423 31.7828H63.847C63.847 29.8423 64.46 28.559 65.5919 27.7961L65.0304 26.9629ZM62.8423 31.7828V42H63.847V31.7828H62.8423ZM63.3447 41.4976H57.8299V42.5024H63.3447V41.4976ZM58.3323 42V20.6251H57.3275V42H58.3323ZM57.8299 21.1274H63.3447V20.1227H57.8299V21.1274ZM62.8423 20.6251V24.3015H63.847V20.6251H62.8423ZM71.9992 42H71.4968V42.5024H71.9992V42ZM71.9992 10.7926V10.2902H71.4968V10.7926H71.9992ZM77.5139 10.7926H78.0163V10.2902H77.5139V10.7926ZM77.5139 42V42.5024H78.0163V42H77.5139ZM72.5015 42V10.7926H71.4968V42H72.5015ZM71.9992 11.2949H77.5139V10.2902H71.9992V11.2949ZM77.0115 10.7926V42H78.0163V10.7926H77.0115ZM77.5139 41.4976H71.9992V42.5024H77.5139V41.4976ZM97.6949 12.0751V11.5727H97.1925V12.0751H97.6949ZM103.21 12.0751H103.712V11.5727H103.21V12.0751ZM103.21 42V42.5024H103.712V42H103.21ZM97.6949 42H97.1925V42.5024H97.6949V42ZM97.6949 39.4778H98.1972V38.0181L97.2989 39.1686L97.6949 39.4778ZM83.3736 39.3495L83.0043 39.6901L83.0089 39.695L83.3736 39.3495ZM83.3736 23.3183L83.0067 22.9752L83.0065 22.9753L83.3736 23.3183ZM97.6949 23.1473L97.2989 23.4565L98.1972 24.607V23.1473H97.6949ZM87.5204 35.673L87.1606 36.0238L87.1697 36.0327L87.5204 35.673ZM96.0276 35.673L96.3829 36.0283L96.3873 36.0237L96.0276 35.673ZM96.0276 26.9948L95.6679 27.3455L95.6724 27.35L96.0276 26.9948ZM87.5204 26.9948L87.1652 26.6396L87.5204 26.9948ZM97.6949 12.5774H103.21V11.5727H97.6949V12.5774ZM102.707 12.0751V42H103.712V12.0751H102.707ZM103.21 41.4976H97.6949V42.5024H103.21V41.4976ZM98.1972 42V39.4778H97.1925V42H98.1972ZM97.2989 39.1686C95.7832 41.1098 93.6307 42.0961 90.7694 42.0961V43.1009C93.8931 43.1009 96.3575 42.0067 98.0908 39.7869L97.2989 39.1686ZM90.7694 42.0961C88.0344 42.0961 85.6994 41.074 83.7383 39.004L83.0089 39.695C85.1519 41.957 87.7474 43.1009 90.7694 43.1009V42.0961ZM83.743 39.009C81.8105 36.9131 80.8408 34.3581 80.8408 31.3125H79.836C79.836 34.5939 80.8898 37.3969 83.0043 39.6901L83.743 39.009ZM80.8408 31.3125C80.8408 28.267 81.8104 25.7276 83.7407 23.6612L83.0065 22.9753C80.8899 25.241 79.836 28.0311 79.836 31.3125H80.8408ZM83.7406 23.6614C85.7023 21.5635 88.0367 20.5289 90.7694 20.5289V19.5242C87.7451 19.5242 85.149 20.6841 83.0067 22.9752L83.7406 23.6614ZM90.7694 20.5289C93.6307 20.5289 95.7832 21.5153 97.2989 23.4565L98.0908 22.8381C96.3575 20.6183 93.8931 19.5242 90.7694 19.5242V20.5289ZM98.1972 23.1473V12.0751H97.1925V23.1473H98.1972ZM87.1697 36.0327C88.4109 37.2429 89.965 37.8426 91.7954 37.8426V36.8379C90.2057 36.8379 88.9099 36.3261 87.8711 35.3133L87.1697 36.0327ZM91.7954 37.8426C93.6257 37.8426 95.1684 37.2427 96.3828 36.0282L95.6724 35.3178C94.6638 36.3263 93.385 36.8379 91.7954 36.8379V37.8426ZM96.3873 36.0237C97.6007 34.7792 98.1972 33.1949 98.1972 31.3125H97.1925C97.1925 32.9642 96.6775 34.2868 95.6679 35.3223L96.3873 36.0237ZM98.1972 31.3125C98.1972 29.4303 97.6006 27.8573 96.3828 26.6396L95.6724 27.35C96.6776 28.3553 97.1925 29.6607 97.1925 31.3125H98.1972ZM96.3873 26.6441C95.1738 25.3994 93.6297 24.7824 91.7954 24.7824V25.7872C93.3811 25.7872 94.6585 26.3102 95.6679 27.3455L96.3873 26.6441ZM91.7954 24.7824C89.9611 24.7824 88.4055 25.3992 87.1652 26.6396L87.8756 27.35C88.9152 26.3104 90.2096 25.7872 91.7954 25.7872V24.7824ZM87.1652 26.6396C85.9474 27.8573 85.3508 29.4303 85.3508 31.3125H86.3555C86.3555 29.6607 86.8704 28.3553 87.8756 27.35L87.1652 26.6396ZM85.3508 31.3125C85.3508 33.1949 85.9473 34.7792 87.1607 36.0237L87.8801 35.3223C86.8705 34.2868 86.3555 32.9642 86.3555 31.3125H85.3508Z" fill="#98ABEE" mask="url(#path-3-outside-2_1235_895)"/>
</mask>
<g mask="url(#mask0_1235_895)">
<rect x="85.6541" y="-15.0711" width="57.7725" height="83.8957" transform="rotate(30 85.6541 -15.0711)" fill="#E1E1E1"/>
</g>
</svg>
