<svg width="172" height="39" viewBox="0 0 172 39" fill="none" xmlns="http://www.w3.org/2000/svg">
<rect width="172" height="39" rx="12" fill="#002ED0"/>
<path d="M56.5875 31.6871L56.4737 31.5715C55.823 32.2023 55.1821 32.4388 54.551 32.4692C53.8937 32.5009 53.1851 32.3115 52.4194 31.9769L52.4194 31.9768L52.4107 31.9732C50.5021 31.1677 48.7096 31.1333 46.7002 31.972L46.7002 31.972L46.6925 31.9753C45.6094 32.4417 44.8868 32.5593 44.3253 32.4814C43.7837 32.4062 43.2822 32.1338 42.6672 31.5721C38.9518 27.7338 37.4056 22.9317 37.7959 19.0977C37.9909 17.1821 38.6643 15.5389 39.7522 14.3581C40.8238 13.195 42.3385 12.4346 44.3283 12.3252C45.2661 12.3796 46.0757 12.6375 46.8424 12.9178C46.9498 12.9571 47.0594 12.9982 47.1706 13.0399C47.8095 13.2797 48.5023 13.5396 49.149 13.5887L49.253 13.5966L49.3552 13.5758C50.0838 13.4276 50.8226 13.1715 51.506 12.9346C51.751 12.8497 51.9889 12.7672 52.2167 12.6931C53.1223 12.3982 53.9544 12.1988 54.8019 12.2587C56.6935 12.4096 58.1256 13.0638 59.1494 14.1895C54.685 17.5088 55.7815 23.7658 60.0465 26.0319C59.1973 28.1316 58.1235 30.097 56.48 31.5668L56.5875 31.6871ZM50.6809 10.4782C50.3567 10.6149 50.0579 10.6985 49.7945 10.7375C49.9547 8.23973 51.8846 6.17627 54.2473 5.62294C54.1713 7.0547 53.4561 8.32033 52.4899 9.25618C51.9217 9.80649 51.2848 10.2234 50.6809 10.4782Z" stroke="white" stroke-width="1.5"/>
<path d="M76.4218 30L75.2889 26.7734H70.8046L69.6718 30H68.1952L72.3514 18.7266H73.7421L77.8983 30H76.4218ZM73.0233 20.4375L71.2186 25.5781H74.8749L73.0702 20.4375H73.0233ZM82.9218 21.7344C83.9634 21.7344 84.802 22.1172 85.4374 22.8828C86.078 23.6484 86.3983 24.6667 86.3983 25.9375C86.3983 27.2031 86.0806 28.2214 85.4452 28.9922C84.8098 29.7578 83.979 30.1406 82.953 30.1406C82.3801 30.1406 81.8671 30.0104 81.4139 29.75C80.9608 29.4896 80.6119 29.1328 80.3671 28.6797H80.3358V32.7109H78.9764V21.875H80.2655V23.25H80.2968C80.552 22.7812 80.9087 22.4115 81.3671 22.1406C81.8254 21.8698 82.3436 21.7344 82.9218 21.7344ZM82.6561 28.9453C83.3801 28.9453 83.953 28.6745 84.3749 28.1328C84.7968 27.5911 85.0077 26.8594 85.0077 25.9375C85.0077 25.0156 84.7968 24.2839 84.3749 23.7422C83.953 23.2005 83.3801 22.9297 82.6561 22.9297C81.9582 22.9297 81.3957 23.2057 80.9686 23.7578C80.5415 24.3099 80.328 25.0365 80.328 25.9375C80.328 26.8438 80.5415 27.5729 80.9686 28.125C81.3957 28.6719 81.9582 28.9453 82.6561 28.9453ZM91.7186 21.7344C92.7603 21.7344 93.5988 22.1172 94.2343 22.8828C94.8749 23.6484 95.1952 24.6667 95.1952 25.9375C95.1952 27.2031 94.8775 28.2214 94.2421 28.9922C93.6066 29.7578 92.7759 30.1406 91.7499 30.1406C91.177 30.1406 90.6639 30.0104 90.2108 29.75C89.7577 29.4896 89.4087 29.1328 89.1639 28.6797H89.1327V32.7109H87.7733V21.875H89.0624V23.25H89.0936C89.3488 22.7812 89.7056 22.4115 90.1639 22.1406C90.6223 21.8698 91.1405 21.7344 91.7186 21.7344ZM91.453 28.9453C92.177 28.9453 92.7499 28.6745 93.1718 28.1328C93.5936 27.5911 93.8046 26.8594 93.8046 25.9375C93.8046 25.0156 93.5936 24.2839 93.1718 23.7422C92.7499 23.2005 92.177 22.9297 91.453 22.9297C90.7551 22.9297 90.1926 23.2057 89.7655 23.7578C89.3384 24.3099 89.1249 25.0365 89.1249 25.9375C89.1249 26.8438 89.3384 27.5729 89.7655 28.125C90.1926 28.6719 90.7551 28.9453 91.453 28.9453ZM99.5233 26.8984H100.937C101.005 27.5078 101.302 27.9974 101.828 28.3672C102.359 28.737 103.029 28.9219 103.836 28.9219C104.596 28.9219 105.224 28.7422 105.719 28.3828C106.219 28.0182 106.469 27.5599 106.469 27.0078C106.469 26.5339 106.294 26.1432 105.945 25.8359C105.601 25.5286 105.049 25.276 104.289 25.0781L102.844 24.7031C101.802 24.4375 101.042 24.0677 100.562 23.5938C100.083 23.1146 99.8436 22.4922 99.8436 21.7266C99.8436 20.7891 100.213 20.0234 100.953 19.4297C101.698 18.8359 102.656 18.5391 103.828 18.5391C104.948 18.5391 105.875 18.8411 106.609 19.4453C107.344 20.0443 107.726 20.8151 107.758 21.7578H106.351C106.289 21.1536 106.029 20.6771 105.57 20.3281C105.112 19.9792 104.516 19.8047 103.781 19.8047C103.052 19.8047 102.456 19.9766 101.992 20.3203C101.534 20.6641 101.305 21.112 101.305 21.6641C101.305 22.0911 101.471 22.4427 101.805 22.7188C102.143 22.9896 102.695 23.224 103.461 23.4219L104.641 23.7344C105.807 24.026 106.646 24.4141 107.156 24.8984C107.667 25.3828 107.922 26.0286 107.922 26.8359C107.922 27.8672 107.542 28.6849 106.781 29.2891C106.026 29.888 105 30.1875 103.703 30.1875C102.505 30.1875 101.526 29.888 100.766 29.2891C100.005 28.6901 99.591 27.8932 99.5233 26.8984ZM109.789 19.9141H111.148V21.875H112.726V22.9922H111.148V27.8203C111.148 28.1901 111.229 28.4635 111.391 28.6406C111.552 28.8125 111.807 28.8984 112.156 28.8984C112.375 28.8984 112.562 28.8854 112.719 28.8594V30C112.542 30.0417 112.255 30.0625 111.859 30.0625C111.114 30.0625 110.583 29.8958 110.266 29.5625C109.948 29.2292 109.789 28.6719 109.789 27.8906V22.9922H108.578V21.875H109.789V19.9141ZM117.312 30.1406C116.177 30.1406 115.266 29.763 114.578 29.0078C113.891 28.2474 113.547 27.224 113.547 25.9375C113.547 24.651 113.891 23.6302 114.578 22.875C115.266 22.1146 116.177 21.7344 117.312 21.7344C118.443 21.7344 119.351 22.1146 120.039 22.875C120.726 23.6302 121.07 24.651 121.07 25.9375C121.07 27.2188 120.726 28.2396 120.039 29C119.351 29.7604 118.443 30.1406 117.312 30.1406ZM115.57 28.1484C116.002 28.6797 116.583 28.9453 117.312 28.9453C118.042 28.9453 118.62 28.6823 119.047 28.1562C119.474 27.625 119.687 26.8854 119.687 25.9375C119.687 24.9896 119.474 24.2526 119.047 23.7266C118.62 23.1953 118.042 22.9297 117.312 22.9297C116.583 22.9297 116.002 23.1953 115.57 23.7266C115.143 24.2578 114.93 24.9948 114.93 25.9375C114.93 26.8802 115.143 27.6172 115.57 28.1484ZM122.445 30V21.875H123.726V23.2031H123.758C123.893 22.75 124.135 22.3932 124.484 22.1328C124.838 21.8672 125.252 21.7344 125.726 21.7344C125.836 21.7344 126.018 21.7526 126.273 21.7891V23.1094C126.127 23.0573 125.885 23.0312 125.547 23.0312C125.021 23.0312 124.599 23.2057 124.281 23.5547C123.963 23.9036 123.805 24.3646 123.805 24.9375V30H122.445ZM130.25 22.9141C129.62 22.9141 129.096 23.1328 128.68 23.5703C128.268 24.0026 128.042 24.5599 128 25.2422H132.414C132.398 24.5547 132.193 23.9948 131.797 23.5625C131.401 23.1302 130.885 22.9141 130.25 22.9141ZM132.383 27.6719H133.719C133.599 28.3906 133.224 28.9818 132.594 29.4453C131.969 29.9089 131.216 30.1406 130.336 30.1406C129.174 30.1406 128.26 29.7656 127.594 29.0156C126.927 28.2656 126.594 27.25 126.594 25.9688C126.594 24.6979 126.927 23.6745 127.594 22.8984C128.266 22.1224 129.159 21.7344 130.273 21.7344C131.367 21.7344 132.232 22.1016 132.867 22.8359C133.502 23.5703 133.82 24.5547 133.82 25.7891V26.3047H127.992V26.3828C127.992 27.1641 128.206 27.7891 128.633 28.2578C129.06 28.7266 129.638 28.9609 130.367 28.9609C130.877 28.9609 131.312 28.8438 131.672 28.6094C132.031 28.375 132.268 28.0625 132.383 27.6719Z" fill="white"/>
<path d="M68.5468 9.36328H70.4413C71.2772 9.36328 71.9296 9.61198 72.3983 10.1094C72.8671 10.6042 73.1014 11.2943 73.1014 12.1797C73.1014 13.0677 72.8671 13.7604 72.3983 14.2578C71.9322 14.7526 71.2798 15 70.4413 15H68.5468V9.36328ZM69.2499 9.99609V14.3672H70.3944C71.0324 14.3672 71.5233 14.1797 71.8671 13.8047C72.2108 13.4271 72.3827 12.888 72.3827 12.1875C72.3827 11.4818 72.2108 10.9401 71.8671 10.5625C71.5259 10.1849 71.035 9.99609 70.3944 9.99609H69.2499ZM75.5546 15.0703C74.9869 15.0703 74.5311 14.8815 74.1874 14.5039C73.8436 14.1237 73.6718 13.612 73.6718 12.9688C73.6718 12.3255 73.8436 11.8151 74.1874 11.4375C74.5311 11.0573 74.9869 10.8672 75.5546 10.8672C76.1197 10.8672 76.5741 11.0573 76.9178 11.4375C77.2616 11.8151 77.4335 12.3255 77.4335 12.9688C77.4335 13.6094 77.2616 14.1198 76.9178 14.5C76.5741 14.8802 76.1197 15.0703 75.5546 15.0703ZM74.6835 14.0742C74.8996 14.3398 75.19 14.4727 75.5546 14.4727C75.9191 14.4727 76.2082 14.3411 76.4218 14.0781C76.6353 13.8125 76.7421 13.4427 76.7421 12.9688C76.7421 12.4948 76.6353 12.1263 76.4218 11.8633C76.2082 11.5977 75.9191 11.4648 75.5546 11.4648C75.19 11.4648 74.8996 11.5977 74.6835 11.8633C74.4699 12.1289 74.3632 12.4974 74.3632 12.9688C74.3632 13.4401 74.4699 13.8086 74.6835 14.0742ZM83.2889 10.9375L82.1561 15H81.4647L80.5468 11.8555H80.5311L79.6171 15H78.9257L77.7889 10.9375H78.4647L79.2772 14.2422H79.2928L80.2108 10.9375H80.8671L81.7889 14.2422H81.8046L82.6171 10.9375H83.2889ZM83.8475 15V10.9375H84.4882V11.5859H84.5038C84.621 11.3594 84.7889 11.1836 85.0077 11.0586C85.2264 10.931 85.4882 10.8672 85.7928 10.8672C86.2356 10.8672 86.5806 11.0013 86.828 11.2695C87.0754 11.5352 87.1991 11.8997 87.1991 12.3633V15H86.5194V12.4844C86.5194 12.1536 86.4413 11.9023 86.285 11.7305C86.1288 11.556 85.8957 11.4688 85.5858 11.4688C85.2655 11.4688 85.009 11.5729 84.8163 11.7812C84.6236 11.9896 84.5272 12.2656 84.5272 12.6094V15H83.8475ZM88.1014 15V9.36328H88.7811V15H88.1014ZM91.3827 15.0703C90.815 15.0703 90.3593 14.8815 90.0155 14.5039C89.6718 14.1237 89.4999 13.612 89.4999 12.9688C89.4999 12.3255 89.6718 11.8151 90.0155 11.4375C90.3593 11.0573 90.815 10.8672 91.3827 10.8672C91.9478 10.8672 92.4022 11.0573 92.746 11.4375C93.0897 11.8151 93.2616 12.3255 93.2616 12.9688C93.2616 13.6094 93.0897 14.1198 92.746 14.5C92.4022 14.8802 91.9478 15.0703 91.3827 15.0703ZM90.5116 14.0742C90.7277 14.3398 91.0181 14.4727 91.3827 14.4727C91.7473 14.4727 92.0363 14.3411 92.2499 14.0781C92.4634 13.8125 92.5702 13.4427 92.5702 12.9688C92.5702 12.4948 92.4634 12.1263 92.2499 11.8633C92.0363 11.5977 91.7473 11.4648 91.3827 11.4648C91.0181 11.4648 90.7277 11.5977 90.5116 11.8633C90.2981 12.1289 90.1913 12.4974 90.1913 12.9688C90.1913 13.4401 90.2981 13.8086 90.5116 14.0742ZM95.2889 14.4922C95.6093 14.4922 95.8775 14.3932 96.0936 14.1953C96.3124 13.9948 96.4218 13.7487 96.4218 13.457V13.125L95.3358 13.1914C95.0624 13.2096 94.8501 13.276 94.6991 13.3906C94.5507 13.5052 94.4764 13.6589 94.4764 13.8516C94.4764 14.0443 94.5507 14.1992 94.6991 14.3164C94.8475 14.4336 95.0441 14.4922 95.2889 14.4922ZM95.1366 15.0703C94.733 15.0703 94.4061 14.9583 94.1561 14.7344C93.9087 14.5104 93.785 14.2161 93.785 13.8516C93.785 13.5026 93.9126 13.224 94.1678 13.0156C94.4257 12.8073 94.7889 12.6901 95.2577 12.6641L96.4218 12.5977V12.2578C96.4218 12.0104 96.3436 11.8164 96.1874 11.6758C96.0311 11.5352 95.8124 11.4648 95.5311 11.4648C95.2733 11.4648 95.0637 11.5221 94.9022 11.6367C94.7408 11.7487 94.6379 11.9062 94.5936 12.1094H93.9374C93.9608 11.7474 94.1171 11.4505 94.4061 11.2188C94.6978 10.9844 95.078 10.8672 95.5468 10.8672C96.0233 10.8672 96.4009 10.987 96.6796 11.2266C96.9608 11.4661 97.1014 11.7878 97.1014 12.1914V15H96.4569V14.3008H96.4413C96.3189 14.5326 96.1392 14.7188 95.9022 14.8594C95.6652 15 95.41 15.0703 95.1366 15.0703ZM99.5038 15.0703C98.983 15.0703 98.5624 14.8789 98.2421 14.4961C97.9244 14.1133 97.7655 13.6042 97.7655 12.9688C97.7655 12.3359 97.9244 11.8281 98.2421 11.4453C98.5598 11.0599 98.9751 10.8672 99.4882 10.8672C99.7746 10.8672 100.031 10.9323 100.258 11.0625C100.484 11.1927 100.659 11.3711 100.781 11.5977H100.797V9.36328H101.476V15H100.828V14.3125H100.816C100.683 14.5495 100.504 14.7357 100.277 14.8711C100.051 15.0039 99.7928 15.0703 99.5038 15.0703ZM99.6327 11.4648C99.2733 11.4648 98.9882 11.6016 98.7772 11.875C98.5663 12.1458 98.4608 12.5104 98.4608 12.9688C98.4608 13.4297 98.5663 13.7956 98.7772 14.0664C98.9882 14.3372 99.2733 14.4727 99.6327 14.4727C99.9843 14.4727 100.267 14.3359 100.48 14.0625C100.694 13.7865 100.801 13.4219 100.801 12.9688C100.801 12.5156 100.693 12.1523 100.476 11.8789C100.263 11.6029 99.9816 11.4648 99.6327 11.4648ZM105.719 15.0703C105.151 15.0703 104.695 14.8815 104.351 14.5039C104.008 14.1237 103.836 13.612 103.836 12.9688C103.836 12.3255 104.008 11.8151 104.351 11.4375C104.695 11.0573 105.151 10.8672 105.719 10.8672C106.284 10.8672 106.738 11.0573 107.082 11.4375C107.426 11.8151 107.598 12.3255 107.598 12.9688C107.598 13.6094 107.426 14.1198 107.082 14.5C106.738 14.8802 106.284 15.0703 105.719 15.0703ZM104.848 14.0742C105.064 14.3398 105.354 14.4727 105.719 14.4727C106.083 14.4727 106.372 14.3411 106.586 14.0781C106.799 13.8125 106.906 13.4427 106.906 12.9688C106.906 12.4948 106.799 12.1263 106.586 11.8633C106.372 11.5977 106.083 11.4648 105.719 11.4648C105.354 11.4648 105.064 11.5977 104.848 11.8633C104.634 12.1289 104.527 12.4974 104.527 12.9688C104.527 13.4401 104.634 13.8086 104.848 14.0742ZM108.285 15V10.9375H108.926V11.5859H108.941C109.058 11.3594 109.226 11.1836 109.445 11.0586C109.664 10.931 109.926 10.8672 110.23 10.8672C110.673 10.8672 111.018 11.0013 111.266 11.2695C111.513 11.5352 111.637 11.8997 111.637 12.3633V15H110.957V12.4844C110.957 12.1536 110.879 11.9023 110.723 11.7305C110.566 11.556 110.333 11.4688 110.023 11.4688C109.703 11.4688 109.446 11.5729 109.254 11.7812C109.061 11.9896 108.965 12.2656 108.965 12.6094V15H108.285ZM114.363 9.95703H115.043V10.9375H115.832V11.4961H115.043V13.9102C115.043 14.0951 115.083 14.2318 115.164 14.3203C115.245 14.4062 115.372 14.4492 115.547 14.4492C115.656 14.4492 115.75 14.4427 115.828 14.4297V15C115.739 15.0208 115.596 15.0312 115.398 15.0312C115.026 15.0312 114.76 14.9479 114.601 14.7812C114.443 14.6146 114.363 14.3359 114.363 13.9453V11.4961H113.758V10.9375H114.363V9.95703ZM116.594 15V9.36328H117.273V11.5859H117.289C117.404 11.3568 117.57 11.1797 117.789 11.0547C118.01 10.9297 118.273 10.8672 118.578 10.8672C119.021 10.8672 119.37 11.0039 119.625 11.2773C119.88 11.5508 120.008 11.9167 120.008 12.375V15H119.328V12.5C119.328 12.1719 119.246 11.918 119.082 11.7383C118.92 11.5586 118.682 11.4688 118.367 11.4688C118.031 11.4688 117.764 11.5742 117.566 11.7852C117.371 11.9961 117.273 12.2786 117.273 12.6328V15H116.594ZM122.5 11.457C122.185 11.457 121.923 11.5664 121.715 11.7852C121.509 12.0013 121.396 12.2799 121.375 12.6211H123.582C123.574 12.2773 123.471 11.9974 123.273 11.7812C123.075 11.5651 122.818 11.457 122.5 11.457ZM123.566 13.8359H124.234C124.174 14.1953 123.987 14.4909 123.672 14.7227C123.359 14.9544 122.983 15.0703 122.543 15.0703C121.962 15.0703 121.505 14.8828 121.172 14.5078C120.838 14.1328 120.672 13.625 120.672 12.9844C120.672 12.349 120.838 11.8372 121.172 11.4492C121.508 11.0612 121.954 10.8672 122.512 10.8672C123.058 10.8672 123.491 11.0508 123.808 11.418C124.126 11.7852 124.285 12.2773 124.285 12.8945V13.1523H121.371V13.1914C121.371 13.582 121.478 13.8945 121.691 14.1289C121.905 14.3633 122.194 14.4805 122.558 14.4805C122.814 14.4805 123.031 14.4219 123.211 14.3047C123.391 14.1875 123.509 14.0312 123.566 13.8359Z" fill="white"/>
</svg>
