<svg width="172" height="39" viewBox="0 0 172 39" fill="none" xmlns="http://www.w3.org/2000/svg">
<rect width="172" height="39" rx="12" fill="#002ED0"/>
<path d="M65.784 9.4C66.5467 9.4 67.1787 9.672 67.68 10.216C68.1867 10.7547 68.44 11.416 68.44 12.2C68.44 12.984 68.1867 13.648 67.68 14.192C67.1787 14.7307 66.5467 15 65.784 15H63.6V9.4H65.784ZM65.784 14.296C66.3547 14.296 66.8213 14.096 67.184 13.696C67.5467 13.296 67.728 12.7973 67.728 12.2C67.728 11.6027 67.5467 11.104 67.184 10.704C66.8213 10.304 66.3547 10.104 65.784 10.104H64.344V14.296H65.784ZM72.6462 14.496C72.2355 14.9013 71.7369 15.104 71.1502 15.104C70.5635 15.104 70.0649 14.9013 69.6542 14.496C69.2489 14.0907 69.0462 13.592 69.0462 13C69.0462 12.408 69.2489 11.9093 69.6542 11.504C70.0649 11.0987 70.5635 10.896 71.1502 10.896C71.7369 10.896 72.2355 11.0987 72.6462 11.504C73.0569 11.9093 73.2622 12.408 73.2622 13C73.2622 13.592 73.0569 14.0907 72.6462 14.496ZM71.1502 14.424C71.5502 14.424 71.8862 14.288 72.1582 14.016C72.4302 13.744 72.5662 13.4053 72.5662 13C72.5662 12.5947 72.4302 12.256 72.1582 11.984C71.8862 11.712 71.5502 11.576 71.1502 11.576C70.7555 11.576 70.4222 11.712 70.1502 11.984C69.8782 12.256 69.7422 12.5947 69.7422 13C69.7422 13.4053 69.8782 13.744 70.1502 14.016C70.4222 14.288 70.7555 14.424 71.1502 14.424ZM78.6384 11H79.3664L78.1264 15H77.4144L76.4784 12.04L75.5424 15H74.8304L73.5904 11H74.3184L75.1984 14.04L76.1424 11H76.8144L77.7584 14.048L78.6384 11ZM82.0747 10.896C82.544 10.896 82.92 11.0453 83.2027 11.344C83.4854 11.6373 83.6267 12.0373 83.6267 12.544V15H82.9307V12.584C82.9307 12.2587 82.8427 12.008 82.6667 11.832C82.4907 11.6507 82.248 11.56 81.9387 11.56C81.592 11.56 81.312 11.6693 81.0987 11.888C80.8854 12.1013 80.7787 12.432 80.7787 12.88V15H80.0827V11H80.7787V11.576C81.0614 11.1227 81.4934 10.896 82.0747 10.896ZM84.5983 15V9.16H85.2943V15H84.5983ZM89.7321 14.496C89.3215 14.9013 88.8228 15.104 88.2361 15.104C87.6495 15.104 87.1508 14.9013 86.7401 14.496C86.3348 14.0907 86.1321 13.592 86.1321 13C86.1321 12.408 86.3348 11.9093 86.7401 11.504C87.1508 11.0987 87.6495 10.896 88.2361 10.896C88.8228 10.896 89.3215 11.0987 89.7321 11.504C90.1428 11.9093 90.3481 12.408 90.3481 13C90.3481 13.592 90.1428 14.0907 89.7321 14.496ZM88.2361 14.424C88.6361 14.424 88.9721 14.288 89.2441 14.016C89.5161 13.744 89.6521 13.4053 89.6521 13C89.6521 12.5947 89.5161 12.256 89.2441 11.984C88.9721 11.712 88.6361 11.576 88.2361 11.576C87.8415 11.576 87.5081 11.712 87.2361 11.984C86.9641 12.256 86.8281 12.5947 86.8281 13C86.8281 13.4053 86.9641 13.744 87.2361 14.016C87.5081 14.288 87.8415 14.424 88.2361 14.424ZM94.4806 11H95.1766V15H94.4806V14.312C94.134 14.84 93.63 15.104 92.9686 15.104C92.4086 15.104 91.9313 14.9013 91.5366 14.496C91.142 14.0853 90.9446 13.5867 90.9446 13C90.9446 12.4133 91.142 11.9173 91.5366 11.512C91.9313 11.1013 92.4086 10.896 92.9686 10.896C93.63 10.896 94.134 11.16 94.4806 11.688V11ZM93.0566 14.432C93.462 14.432 93.8006 14.296 94.0726 14.024C94.3446 13.7467 94.4806 13.4053 94.4806 13C94.4806 12.5947 94.3446 12.256 94.0726 11.984C93.8006 11.7067 93.462 11.568 93.0566 11.568C92.6566 11.568 92.3206 11.7067 92.0486 11.984C91.7766 12.256 91.6406 12.5947 91.6406 13C91.6406 13.4053 91.7766 13.7467 92.0486 14.024C92.3206 14.296 92.6566 14.432 93.0566 14.432ZM99.5431 9.4H100.239V15H99.5431V14.312C99.1965 14.84 98.6925 15.104 98.0311 15.104C97.4711 15.104 96.9938 14.9013 96.5991 14.496C96.2045 14.0853 96.0071 13.5867 96.0071 13C96.0071 12.4133 96.2045 11.9173 96.5991 11.512C96.9938 11.1013 97.4711 10.896 98.0311 10.896C98.6925 10.896 99.1965 11.16 99.5431 11.688V9.4ZM98.1191 14.432C98.5245 14.432 98.8631 14.296 99.1351 14.024C99.4071 13.7467 99.5431 13.4053 99.5431 13C99.5431 12.5947 99.4071 12.256 99.1351 11.984C98.8631 11.7067 98.5245 11.568 98.1191 11.568C97.7191 11.568 97.3831 11.7067 97.1111 11.984C96.8391 12.256 96.7031 12.5947 96.7031 13C96.7031 13.4053 96.8391 13.7467 97.1111 14.024C97.3831 14.296 97.7191 14.432 98.1191 14.432ZM106.67 14.496C106.259 14.9013 105.76 15.104 105.174 15.104C104.587 15.104 104.088 14.9013 103.678 14.496C103.272 14.0907 103.07 13.592 103.07 13C103.07 12.408 103.272 11.9093 103.678 11.504C104.088 11.0987 104.587 10.896 105.174 10.896C105.76 10.896 106.259 11.0987 106.67 11.504C107.08 11.9093 107.286 12.408 107.286 13C107.286 13.592 107.08 14.0907 106.67 14.496ZM105.174 14.424C105.574 14.424 105.91 14.288 106.182 14.016C106.454 13.744 106.59 13.4053 106.59 13C106.59 12.5947 106.454 12.256 106.182 11.984C105.91 11.712 105.574 11.576 105.174 11.576C104.779 11.576 104.446 11.712 104.174 11.984C103.902 12.256 103.766 12.5947 103.766 13C103.766 13.4053 103.902 13.744 104.174 14.016C104.446 14.288 104.779 14.424 105.174 14.424ZM110.098 10.896C110.567 10.896 110.943 11.0453 111.226 11.344C111.509 11.6373 111.65 12.0373 111.65 12.544V15H110.954V12.584C110.954 12.2587 110.866 12.008 110.69 11.832C110.514 11.6507 110.271 11.56 109.962 11.56C109.615 11.56 109.335 11.6693 109.122 11.888C108.909 12.1013 108.802 12.432 108.802 12.88V15H108.106V11H108.802V11.576C109.085 11.1227 109.517 10.896 110.098 10.896ZM116.798 11.672H115.734V13.84C115.734 14.0373 115.771 14.1787 115.846 14.264C115.926 14.344 116.046 14.3867 116.206 14.392C116.366 14.392 116.563 14.3867 116.798 14.376V15C116.19 15.08 115.744 15.032 115.462 14.856C115.179 14.6747 115.038 14.336 115.038 13.84V11.672H114.246V11H115.038V10.088L115.734 9.88V11H116.798V11.672ZM119.614 10.896C120.083 10.896 120.459 11.0453 120.742 11.344C121.024 11.6373 121.166 12.0373 121.166 12.544V15H120.47V12.584C120.47 12.2587 120.382 12.008 120.206 11.832C120.03 11.6507 119.787 11.56 119.478 11.56C119.131 11.56 118.851 11.6693 118.638 11.888C118.424 12.1013 118.318 12.432 118.318 12.88V15H117.622V9.4H118.318V11.576C118.6 11.1227 119.032 10.896 119.614 10.896ZM122.625 13.32C122.695 13.6773 122.857 13.9547 123.113 14.152C123.375 14.3493 123.695 14.448 124.073 14.448C124.601 14.448 124.985 14.2533 125.225 13.864L125.817 14.2C125.428 14.8027 124.841 15.104 124.057 15.104C123.423 15.104 122.905 14.9067 122.505 14.512C122.111 14.112 121.913 13.608 121.913 13C121.913 12.3973 122.108 11.896 122.497 11.496C122.887 11.096 123.391 10.896 124.009 10.896C124.596 10.896 125.073 11.104 125.441 11.52C125.815 11.9307 126.001 12.4267 126.001 13.008C126.001 13.1093 125.993 13.2133 125.977 13.32H122.625ZM124.009 11.552C123.636 11.552 123.327 11.6587 123.081 11.872C122.836 12.08 122.684 12.36 122.625 12.712H125.297C125.239 12.3333 125.089 12.0453 124.849 11.848C124.609 11.6507 124.329 11.552 124.009 11.552Z" fill="white"/>
<g clip-path="url(#clip0_333_6310)">
<path d="M136.183 23.3038L134.334 28.0105L134.279 28.0105L132.351 23.3034L130.608 23.3032L133.496 29.8833L131.845 33.5429L133.539 33.543L137.995 23.304L136.183 23.3038ZM123.122 19.3963L121.508 19.3962L121.507 30.2517L123.121 30.2519L123.122 19.3963ZM117.048 19.3957L113.166 19.3952L113.165 30.2507L114.792 30.2509L114.792 26.1416L117.053 26.1419C117.509 26.1575 117.963 26.0825 118.39 25.921C118.817 25.7596 119.207 25.5151 119.538 25.2016C119.869 24.8881 120.135 24.5119 120.32 24.0949C120.505 23.6778 120.605 23.2282 120.614 22.7722C120.605 22.3153 120.505 21.8649 120.32 21.4471C120.135 21.0292 119.869 20.6523 119.537 20.3382C119.205 20.024 118.814 19.7789 118.387 19.6171C117.96 19.4552 117.504 19.3801 117.048 19.3957ZM117.09 24.6262L114.792 24.6259L114.793 20.9293L117.097 20.9295C117.587 20.9296 118.057 21.1244 118.404 21.471C118.75 21.8177 118.945 22.2879 118.945 22.7781C118.945 23.2683 118.75 23.7384 118.403 24.085C118.057 24.4315 117.587 24.6262 117.096 24.6262L117.09 24.6262L117.09 24.6262ZM127.102 23.0686C126.511 23.0346 125.922 23.1738 125.409 23.4692C124.896 23.7646 124.48 24.2033 124.212 24.7316L125.654 25.348C125.797 25.0868 126.013 24.873 126.276 24.7329C126.538 24.5928 126.836 24.5326 127.133 24.5595C127.336 24.5392 127.542 24.5593 127.738 24.6186C127.933 24.678 128.116 24.7755 128.274 24.9055C128.432 25.0354 128.562 25.1954 128.658 25.376C128.754 25.5567 128.814 25.7546 128.833 25.9583L128.833 26.0692C128.316 25.7897 127.738 25.6435 127.151 25.6438C125.605 25.6437 124.027 26.4938 124.027 28.108C124.027 29.562 125.29 30.4986 126.719 30.4987C127.126 30.5246 127.532 30.4397 127.894 30.2532C128.257 30.0666 128.562 29.7853 128.777 29.4393L128.839 29.4393L128.839 30.2771L130.416 30.2773L130.416 26.1002C130.417 24.1718 128.975 23.0997 127.114 23.0995L127.102 23.0686ZM126.91 29.0201C126.381 29.0201 125.641 28.7489 125.641 28.0958C125.641 27.258 126.559 26.9378 127.36 26.9379C127.877 26.9239 128.388 27.0495 128.839 27.3013C128.779 27.7725 128.551 28.2061 128.197 28.5221C127.842 28.838 127.385 29.015 126.91 29.0201ZM68.4915 30.4799C65.301 30.4901 62.6955 27.9333 62.6452 24.7433C62.6964 21.5533 65.3023 18.9971 68.4927 19.008C69.2233 18.9959 69.9488 19.1298 70.6269 19.4018C71.305 19.6738 71.922 20.0784 72.4417 20.5919L71.3264 21.6947C70.5702 20.9534 69.5515 20.5414 68.4926 20.5483C66.189 20.5481 64.3214 22.4153 64.3211 24.7189C64.3208 27.0224 66.1881 28.8901 68.4916 28.8904C69.03 28.9125 69.567 28.8214 70.0679 28.623C70.5689 28.4245 71.0226 28.1232 71.3998 27.7384C71.9013 27.1979 72.2034 26.5026 72.2564 25.7672L68.492 25.7667L68.4922 24.245L73.7906 24.2456C73.8484 24.5688 73.8751 24.8967 73.8706 25.2252C73.9237 26.589 73.4339 27.9183 72.5086 28.9217C71.9861 29.4492 71.3584 29.8606 70.6662 30.1291C69.974 30.3976 69.233 30.5172 68.4915 30.4799ZM82.0646 26.7848C82.0849 27.2777 82.0054 27.7696 81.8308 28.231C81.6561 28.6924 81.39 29.1137 81.0484 29.4697C80.7068 29.8256 80.2968 30.1088 79.843 30.3022C79.3892 30.4957 78.9009 30.5954 78.4076 30.5953C77.9143 30.5952 77.426 30.4954 76.9722 30.3019C76.5185 30.1084 76.1085 29.8251 75.767 29.4691C75.4255 29.1131 75.1595 28.6917 74.9849 28.2303C74.8104 27.7688 74.731 27.2769 74.7514 26.784C74.7311 26.2911 74.8106 25.7991 74.9853 25.3377C75.1599 24.8763 75.426 24.455 75.7676 24.0991C76.1092 23.7432 76.5192 23.46 76.973 23.2665C77.4269 23.0731 77.9151 22.9734 78.4084 22.9735C78.9018 22.9735 79.39 23.0733 79.8438 23.2669C80.2976 23.4604 80.7075 23.7437 81.049 24.0997C81.3906 24.4557 81.6566 24.8771 81.8311 25.3385C82.0056 25.7999 82.085 26.2919 82.0646 26.7848ZM80.4628 26.7846C80.4899 26.4985 80.4569 26.2098 80.366 25.9371C80.2751 25.6645 80.1282 25.4138 79.9348 25.2011C79.7414 24.9885 79.5057 24.8186 79.2428 24.7024C78.98 24.5861 78.6957 24.5261 78.4083 24.526C78.1208 24.526 77.8366 24.586 77.5737 24.7022C77.3108 24.8184 77.075 24.9882 76.8816 25.2008C76.6881 25.4134 76.5412 25.664 76.4502 25.9367C76.3592 26.2093 76.3262 26.498 76.3533 26.7842C76.3262 27.0703 76.3591 27.359 76.45 27.6316C76.5409 27.9043 76.6878 28.155 76.8812 28.3676C77.0746 28.5802 77.3103 28.7501 77.5732 28.8664C77.8361 28.9826 78.1203 29.0427 78.4078 29.0427C78.6952 29.0428 78.9795 28.9828 79.2424 28.8666C79.5053 28.7504 79.741 28.5805 79.9344 28.368C80.1279 28.1554 80.2748 27.9047 80.3658 27.6321C80.4568 27.3594 80.4898 27.0708 80.4628 26.7846ZM90.2588 26.7857C90.2586 28.8035 88.6225 30.439 86.6049 30.4388C84.5871 30.4385 82.9514 28.8027 82.9517 26.7849C82.9519 24.7671 84.5879 23.1316 86.6057 23.1318C88.6234 23.1321 90.259 24.7679 90.2588 26.7857ZM88.6632 26.7855C88.6903 26.4994 88.6573 26.2107 88.5664 25.938C88.4755 25.6654 88.3286 25.4147 88.1352 25.2021C87.9418 24.9894 87.7061 24.8196 87.4433 24.7033C87.1804 24.587 86.8961 24.527 86.6087 24.5269C86.3213 24.5269 86.037 24.5869 85.7741 24.7031C85.5112 24.8193 85.2755 24.9891 85.082 25.2017C84.8885 25.4143 84.7416 25.665 84.6506 25.9376C84.5597 26.2103 84.5267 26.4989 84.5537 26.7851C84.5264 27.0713 84.5593 27.3601 84.6501 27.6329C84.741 27.9056 84.8878 28.1564 85.0812 28.3692C85.2746 28.5819 85.5104 28.7519 85.7733 28.8682C86.0362 28.9846 86.3206 29.0447 86.6081 29.0447C86.8956 29.0447 87.18 28.9847 87.4429 28.8684C87.7059 28.7521 87.9417 28.5822 88.1351 28.3695C88.3286 28.1568 88.4755 27.9061 88.5664 27.6333C88.6573 27.3605 88.6904 27.0718 88.6632 26.7855ZM98.2561 23.3181L98.2554 29.9534C98.2551 32.6764 96.6345 33.7977 94.7247 33.7975C94.0246 33.8033 93.3385 33.6015 92.753 33.2177C92.1675 32.8338 91.7088 32.2851 91.4349 31.6408L92.8335 31.0248C92.9785 31.401 93.2312 31.7261 93.5599 31.9595C93.8886 32.193 94.2787 32.3244 94.6817 32.3374C95.914 32.3375 96.6656 31.5799 96.6658 30.1688L96.6658 29.639L96.6043 29.639C96.3626 29.9086 96.066 30.1234 95.7345 30.269C95.4029 30.4145 95.044 30.4874 94.6819 30.4828C92.6402 30.4826 90.9855 28.8275 90.9857 26.7858C90.9859 24.7441 92.6411 23.0893 94.6827 23.0896C95.0472 23.0816 95.4092 23.151 95.7448 23.2934C96.0804 23.4357 96.382 23.6477 96.6296 23.9153L96.6911 23.9153L96.6912 23.2994L98.2561 23.2995L98.2561 23.3181ZM96.8203 26.805C96.8429 26.5262 96.8093 26.2456 96.7215 25.98C96.6337 25.7144 96.4933 25.4691 96.3089 25.2588C96.1244 25.0484 95.8996 24.8773 95.6478 24.7555C95.3959 24.6337 95.1221 24.5638 94.8427 24.5499C94.5578 24.5592 94.2777 24.6253 94.0187 24.7443C93.7597 24.8632 93.527 25.0326 93.3342 25.2426C93.1414 25.4525 92.9924 25.6988 92.8959 25.967C92.7994 26.2352 92.7574 26.5199 92.7723 26.8045C92.7591 27.0872 92.8024 27.3697 92.8998 27.6355C92.9972 27.9012 93.1467 28.1448 93.3395 28.352C93.5323 28.5591 93.7646 28.7257 94.0226 28.842C94.2806 28.9582 94.5593 29.0217 94.8422 29.0288C95.1199 29.0181 95.3927 28.9514 95.644 28.8327C95.8953 28.7141 96.1201 28.5458 96.3048 28.3382C96.4895 28.1305 96.6304 27.8876 96.719 27.6242C96.8076 27.3607 96.842 27.0821 96.8203 26.805ZM101.109 19.406L101.108 30.2556L99.4814 30.2555L99.4826 19.4058L101.109 19.406ZM107.516 28.0077L108.785 28.8457C108.446 29.3512 107.987 29.7653 107.45 30.0511C106.912 30.3369 106.313 30.4855 105.704 30.4839C105.22 30.4907 104.739 30.3993 104.291 30.2151C103.844 30.0308 103.438 29.7576 103.099 29.412C102.759 29.0664 102.494 28.6556 102.318 28.2044C102.142 27.7532 102.06 27.271 102.076 26.787C101.926 25.0645 103.093 23.5042 104.788 23.1606C106.483 22.8171 108.165 23.7998 108.699 25.4447L108.865 25.8699L103.936 27.9085C104.09 28.2537 104.343 28.545 104.664 28.7449C104.984 28.9448 105.357 29.0442 105.735 29.0301C106.094 29.0245 106.446 28.9277 106.757 28.7488C107.069 28.57 107.33 28.3151 107.516 28.0077ZM103.628 26.6763L106.943 25.309C106.815 25.0578 106.616 24.8498 106.37 24.7107C106.125 24.5716 105.844 24.5074 105.563 24.5262C105.294 24.538 105.03 24.6032 104.786 24.7181C104.543 24.833 104.325 24.9953 104.145 25.1955C103.964 25.3956 103.826 25.6297 103.737 25.8839C103.649 26.1382 103.612 26.4075 103.628 26.6763Z" fill="white"/>
</g>
<path d="M54.4804 19.4891L36.125 8.98582C35.8575 8.82978 35.5532 8.74756 35.2435 8.74756C34.9337 8.74756 34.6295 8.82978 34.3619 8.98582C34.0983 9.13699 33.8795 9.3555 33.7281 9.61898C33.5767 9.88247 33.498 10.1815 33.5 10.4854V31.5138C33.4992 31.8174 33.5789 32.1158 33.7311 32.3784C33.8833 32.6411 34.1025 32.8587 34.3663 33.0089C34.6339 33.165 34.9381 33.2472 35.2479 33.2472C35.5576 33.2472 35.8618 33.165 36.1294 33.0089L54.4804 22.5089C54.7511 22.3605 54.977 22.1419 55.1344 21.8762C55.2917 21.6104 55.3747 21.3073 55.3747 20.9985C55.3747 20.6897 55.2917 20.3865 55.1344 20.1208C54.977 19.855 54.7511 19.6365 54.4804 19.488V19.4891ZM35.25 30.2604V11.7388L44.513 20.9996L35.25 30.2604ZM45.75 22.2366L47.8194 24.306L38.1397 29.8469L45.75 22.2366ZM38.1375 12.1511L47.8205 17.6932L45.75 19.7625L38.1375 12.1511ZM49.3933 23.4058L46.9871 20.9996L49.3933 18.5933L53.5966 20.9996L49.3933 23.4058Z" fill="white"/>
<defs>
<clipPath id="clip0_333_6310">
<rect width="99.9933" height="19.7252" fill="white" transform="translate(38.0022 15)"/>
</clipPath>
</defs>
</svg>
