<svg width="172" height="39" viewBox="0 0 172 39" fill="none" xmlns="http://www.w3.org/2000/svg">
<rect width="172" height="39" rx="12" fill="white"/>
<path d="M51.5469 9.36328H53.4414C54.2773 9.36328 54.9297 9.61198 55.3984 10.1094C55.8672 10.6042 56.1016 11.2943 56.1016 12.1797C56.1016 13.0677 55.8672 13.7604 55.3984 14.2578C54.9323 14.7526 54.2799 15 53.4414 15H51.5469V9.36328ZM52.25 9.99609V14.3672H53.3945C54.0326 14.3672 54.5234 14.1797 54.8672 13.8047C55.2109 13.4271 55.3828 12.888 55.3828 12.1875C55.3828 11.4818 55.2109 10.9401 54.8672 10.5625C54.526 10.1849 54.0352 9.99609 53.3945 9.99609H52.25ZM58.5547 15.0703C57.987 15.0703 57.5312 14.8815 57.1875 14.5039C56.8438 14.1237 56.6719 13.612 56.6719 12.9688C56.6719 12.3255 56.8438 11.8151 57.1875 11.4375C57.5312 11.0573 57.987 10.8672 58.5547 10.8672C59.1198 10.8672 59.5742 11.0573 59.918 11.4375C60.2617 11.8151 60.4336 12.3255 60.4336 12.9688C60.4336 13.6094 60.2617 14.1198 59.918 14.5C59.5742 14.8802 59.1198 15.0703 58.5547 15.0703ZM57.6836 14.0742C57.8997 14.3398 58.1901 14.4727 58.5547 14.4727C58.9193 14.4727 59.2083 14.3411 59.4219 14.0781C59.6354 13.8125 59.7422 13.4427 59.7422 12.9688C59.7422 12.4948 59.6354 12.1263 59.4219 11.8633C59.2083 11.5977 58.9193 11.4648 58.5547 11.4648C58.1901 11.4648 57.8997 11.5977 57.6836 11.8633C57.4701 12.1289 57.3633 12.4974 57.3633 12.9688C57.3633 13.4401 57.4701 13.8086 57.6836 14.0742ZM66.2891 10.9375L65.1562 15H64.4648L63.5469 11.8555H63.5312L62.6172 15H61.9258L60.7891 10.9375H61.4648L62.2773 14.2422H62.293L63.2109 10.9375H63.8672L64.7891 14.2422H64.8047L65.6172 10.9375H66.2891ZM66.8477 15V10.9375H67.4883V11.5859H67.5039C67.6211 11.3594 67.7891 11.1836 68.0078 11.0586C68.2266 10.931 68.4883 10.8672 68.793 10.8672C69.2357 10.8672 69.5807 11.0013 69.8281 11.2695C70.0755 11.5352 70.1992 11.8997 70.1992 12.3633V15H69.5195V12.4844C69.5195 12.1536 69.4414 11.9023 69.2852 11.7305C69.1289 11.556 68.8958 11.4688 68.5859 11.4688C68.2656 11.4688 68.0091 11.5729 67.8164 11.7812C67.6237 11.9896 67.5273 12.2656 67.5273 12.6094V15H66.8477ZM71.1016 15V9.36328H71.7812V15H71.1016ZM74.3828 15.0703C73.8151 15.0703 73.3594 14.8815 73.0156 14.5039C72.6719 14.1237 72.5 13.612 72.5 12.9688C72.5 12.3255 72.6719 11.8151 73.0156 11.4375C73.3594 11.0573 73.8151 10.8672 74.3828 10.8672C74.9479 10.8672 75.4023 11.0573 75.7461 11.4375C76.0898 11.8151 76.2617 12.3255 76.2617 12.9688C76.2617 13.6094 76.0898 14.1198 75.7461 14.5C75.4023 14.8802 74.9479 15.0703 74.3828 15.0703ZM73.5117 14.0742C73.7279 14.3398 74.0182 14.4727 74.3828 14.4727C74.7474 14.4727 75.0365 14.3411 75.25 14.0781C75.4635 13.8125 75.5703 13.4427 75.5703 12.9688C75.5703 12.4948 75.4635 12.1263 75.25 11.8633C75.0365 11.5977 74.7474 11.4648 74.3828 11.4648C74.0182 11.4648 73.7279 11.5977 73.5117 11.8633C73.2982 12.1289 73.1914 12.4974 73.1914 12.9688C73.1914 13.4401 73.2982 13.8086 73.5117 14.0742ZM78.2891 14.4922C78.6094 14.4922 78.8776 14.3932 79.0938 14.1953C79.3125 13.9948 79.4219 13.7487 79.4219 13.457V13.125L78.3359 13.1914C78.0625 13.2096 77.8503 13.276 77.6992 13.3906C77.5508 13.5052 77.4766 13.6589 77.4766 13.8516C77.4766 14.0443 77.5508 14.1992 77.6992 14.3164C77.8477 14.4336 78.0443 14.4922 78.2891 14.4922ZM78.1367 15.0703C77.7331 15.0703 77.4062 14.9583 77.1562 14.7344C76.9089 14.5104 76.7852 14.2161 76.7852 13.8516C76.7852 13.5026 76.9128 13.224 77.168 13.0156C77.4258 12.8073 77.7891 12.6901 78.2578 12.6641L79.4219 12.5977V12.2578C79.4219 12.0104 79.3438 11.8164 79.1875 11.6758C79.0312 11.5352 78.8125 11.4648 78.5312 11.4648C78.2734 11.4648 78.0638 11.5221 77.9023 11.6367C77.7409 11.7487 77.638 11.9062 77.5938 12.1094H76.9375C76.9609 11.7474 77.1172 11.4505 77.4062 11.2188C77.6979 10.9844 78.0781 10.8672 78.5469 10.8672C79.0234 10.8672 79.401 10.987 79.6797 11.2266C79.9609 11.4661 80.1016 11.7878 80.1016 12.1914V15H79.457V14.3008H79.4414C79.319 14.5326 79.1393 14.7188 78.9023 14.8594C78.6654 15 78.4102 15.0703 78.1367 15.0703ZM82.5039 15.0703C81.9831 15.0703 81.5625 14.8789 81.2422 14.4961C80.9245 14.1133 80.7656 13.6042 80.7656 12.9688C80.7656 12.3359 80.9245 11.8281 81.2422 11.4453C81.5599 11.0599 81.9753 10.8672 82.4883 10.8672C82.7747 10.8672 83.0312 10.9323 83.2578 11.0625C83.4844 11.1927 83.6589 11.3711 83.7812 11.5977H83.7969V9.36328H84.4766V15H83.8281V14.3125H83.8164C83.6836 14.5495 83.5039 14.7357 83.2773 14.8711C83.0508 15.0039 82.793 15.0703 82.5039 15.0703ZM82.6328 11.4648C82.2734 11.4648 81.9883 11.6016 81.7773 11.875C81.5664 12.1458 81.4609 12.5104 81.4609 12.9688C81.4609 13.4297 81.5664 13.7956 81.7773 14.0664C81.9883 14.3372 82.2734 14.4727 82.6328 14.4727C82.9844 14.4727 83.2669 14.3359 83.4805 14.0625C83.694 13.7865 83.8008 13.4219 83.8008 12.9688C83.8008 12.5156 83.6927 12.1523 83.4766 11.8789C83.263 11.6029 82.9818 11.4648 82.6328 11.4648ZM88.7188 15.0703C88.151 15.0703 87.6953 14.8815 87.3516 14.5039C87.0078 14.1237 86.8359 13.612 86.8359 12.9688C86.8359 12.3255 87.0078 11.8151 87.3516 11.4375C87.6953 11.0573 88.151 10.8672 88.7188 10.8672C89.2839 10.8672 89.7383 11.0573 90.082 11.4375C90.4258 11.8151 90.5977 12.3255 90.5977 12.9688C90.5977 13.6094 90.4258 14.1198 90.082 14.5C89.7383 14.8802 89.2839 15.0703 88.7188 15.0703ZM87.8477 14.0742C88.0638 14.3398 88.3542 14.4727 88.7188 14.4727C89.0833 14.4727 89.3724 14.3411 89.5859 14.0781C89.7995 13.8125 89.9062 13.4427 89.9062 12.9688C89.9062 12.4948 89.7995 12.1263 89.5859 11.8633C89.3724 11.5977 89.0833 11.4648 88.7188 11.4648C88.3542 11.4648 88.0638 11.5977 87.8477 11.8633C87.6341 12.1289 87.5273 12.4974 87.5273 12.9688C87.5273 13.4401 87.6341 13.8086 87.8477 14.0742ZM91.2852 15V10.9375H91.9258V11.5859H91.9414C92.0586 11.3594 92.2266 11.1836 92.4453 11.0586C92.6641 10.931 92.9258 10.8672 93.2305 10.8672C93.6732 10.8672 94.0182 11.0013 94.2656 11.2695C94.513 11.5352 94.6367 11.8997 94.6367 12.3633V15H93.957V12.4844C93.957 12.1536 93.8789 11.9023 93.7227 11.7305C93.5664 11.556 93.3333 11.4688 93.0234 11.4688C92.7031 11.4688 92.4466 11.5729 92.2539 11.7812C92.0612 11.9896 91.9648 12.2656 91.9648 12.6094V15H91.2852ZM97.3633 9.95703H98.043V10.9375H98.832V11.4961H98.043V13.9102C98.043 14.0951 98.0833 14.2318 98.1641 14.3203C98.2448 14.4062 98.3724 14.4492 98.5469 14.4492C98.6562 14.4492 98.75 14.4427 98.8281 14.4297V15C98.7396 15.0208 98.5964 15.0312 98.3984 15.0312C98.026 15.0312 97.7604 14.9479 97.6016 14.7812C97.4427 14.6146 97.3633 14.3359 97.3633 13.9453V11.4961H96.7578V10.9375H97.3633V9.95703ZM99.5938 15V9.36328H100.273V11.5859H100.289C100.404 11.3568 100.57 11.1797 100.789 11.0547C101.01 10.9297 101.273 10.8672 101.578 10.8672C102.021 10.8672 102.37 11.0039 102.625 11.2773C102.88 11.5508 103.008 11.9167 103.008 12.375V15H102.328V12.5C102.328 12.1719 102.246 11.918 102.082 11.7383C101.921 11.5586 101.682 11.4688 101.367 11.4688C101.031 11.4688 100.764 11.5742 100.566 11.7852C100.371 11.9961 100.273 12.2786 100.273 12.6328V15H99.5938ZM105.5 11.457C105.185 11.457 104.923 11.5664 104.715 11.7852C104.509 12.0013 104.396 12.2799 104.375 12.6211H106.582C106.574 12.2773 106.471 11.9974 106.273 11.7812C106.076 11.5651 105.818 11.457 105.5 11.457ZM106.566 13.8359H107.234C107.174 14.1953 106.987 14.4909 106.672 14.7227C106.359 14.9544 105.983 15.0703 105.543 15.0703C104.962 15.0703 104.505 14.8828 104.172 14.5078C103.839 14.1328 103.672 13.625 103.672 12.9844C103.672 12.349 103.839 11.8372 104.172 11.4492C104.508 11.0612 104.954 10.8672 105.512 10.8672C106.059 10.8672 106.491 11.0508 106.809 11.418C107.126 11.7852 107.285 12.2773 107.285 12.8945V13.1523H104.371V13.1914C104.371 13.582 104.478 13.8945 104.691 14.1289C104.905 14.3633 105.194 14.4805 105.559 14.4805C105.814 14.4805 106.031 14.4219 106.211 14.3047C106.391 14.1875 106.509 14.0312 106.566 13.8359Z" fill="#002ED0"/>
<path d="M58.5703 30H57.5156V26.1504H52.875V30H51.8203V21.5449H52.875V25.2012H57.5156V21.5449H58.5703V30ZM61.2656 21.5449V26.9648C61.2656 27.6172 61.4688 28.1484 61.875 28.5586C62.2852 28.9648 62.8496 29.168 63.5684 29.168C64.2871 29.168 64.8496 28.9648 65.2559 28.5586C65.666 28.1484 65.8711 27.6172 65.8711 26.9648V21.5449H66.9258V27.0352C66.9258 27.9531 66.623 28.7012 66.0176 29.2793C65.416 29.8535 64.5996 30.1406 63.5684 30.1406C62.5371 30.1406 61.7188 29.8535 61.1133 29.2793C60.5117 28.7012 60.2109 27.9531 60.2109 27.0352V21.5449H61.2656ZM74.0625 30L73.2129 27.5801H69.8496L69 30H67.8926L71.0098 21.5449H72.0527L75.1699 30H74.0625ZM71.5137 22.8281L70.1602 26.6836H72.9023L71.5488 22.8281H71.5137ZM80.0684 23.291L78.1172 30H77.1211L74.8184 21.5449H75.9199L77.6133 28.4473H77.6602L79.5645 21.5449H80.6309L82.5352 28.4473H82.582L84.2754 21.5449H85.377L83.0742 30H82.0781L80.127 23.291H80.0684ZM91.6992 29.0508V30H86.4609V21.5449H91.6992V22.4941H87.5156V25.207H91.4824V26.1445H87.5156V29.0508H91.6992ZM94.1484 30H93.0938V21.5449H94.1484V30ZM103.746 30L102.896 27.5801H99.5332L98.6836 30H97.5762L100.693 21.5449H101.736L104.854 30H103.746ZM101.197 22.8281L99.8438 26.6836H102.586L101.232 22.8281H101.197ZM108.621 23.8008C109.402 23.8008 110.031 24.0879 110.508 24.6621C110.988 25.2363 111.229 26 111.229 26.9531C111.229 27.9023 110.99 28.666 110.514 29.2441C110.037 29.8184 109.414 30.1055 108.645 30.1055C108.215 30.1055 107.83 30.0078 107.49 29.8125C107.15 29.6172 106.889 29.3496 106.705 29.0098H106.682V32.0332H105.662V23.9062H106.629V24.9375H106.652C106.844 24.5859 107.111 24.3086 107.455 24.1055C107.799 23.9023 108.188 23.8008 108.621 23.8008ZM108.422 29.209C108.965 29.209 109.395 29.0059 109.711 28.5996C110.027 28.1934 110.186 27.6445 110.186 26.9531C110.186 26.2617 110.027 25.7129 109.711 25.3066C109.395 24.9004 108.965 24.6973 108.422 24.6973C107.898 24.6973 107.477 24.9043 107.156 25.3184C106.836 25.7324 106.676 26.2773 106.676 26.9531C106.676 27.6328 106.836 28.1797 107.156 28.5938C107.477 29.0039 107.898 29.209 108.422 29.209ZM115.219 23.8008C116 23.8008 116.629 24.0879 117.105 24.6621C117.586 25.2363 117.826 26 117.826 26.9531C117.826 27.9023 117.588 28.666 117.111 29.2441C116.635 29.8184 116.012 30.1055 115.242 30.1055C114.812 30.1055 114.428 30.0078 114.088 29.8125C113.748 29.6172 113.486 29.3496 113.303 29.0098H113.279V32.0332H112.26V23.9062H113.227V24.9375H113.25C113.441 24.5859 113.709 24.3086 114.053 24.1055C114.396 23.9023 114.785 23.8008 115.219 23.8008ZM115.02 29.209C115.562 29.209 115.992 29.0059 116.309 28.5996C116.625 28.1934 116.783 27.6445 116.783 26.9531C116.783 26.2617 116.625 25.7129 116.309 25.3066C115.992 24.9004 115.562 24.6973 115.02 24.6973C114.496 24.6973 114.074 24.9043 113.754 25.3184C113.434 25.7324 113.273 26.2773 113.273 26.9531C113.273 27.6328 113.434 28.1797 113.754 28.5938C114.074 29.0039 114.496 29.209 115.02 29.209ZM126.146 26.502C126.146 27.6465 125.83 28.5391 125.197 29.1797C124.568 29.8203 123.689 30.1406 122.561 30.1406C121.381 30.1406 120.439 29.7422 119.736 28.9453C119.037 28.1445 118.688 27.0723 118.688 25.7285C118.688 24.4082 119.037 23.3574 119.736 22.5762C120.436 21.7949 121.377 21.4043 122.561 21.4043C123.475 21.4043 124.252 21.6562 124.893 22.1602C125.537 22.6602 125.938 23.3301 126.094 24.1699H124.986C124.811 23.5996 124.51 23.1582 124.084 22.8457C123.662 22.5332 123.154 22.377 122.561 22.377C121.689 22.377 121.006 22.6738 120.51 23.2676C120.018 23.8574 119.771 24.6758 119.771 25.7227C119.771 26.7852 120.021 27.625 120.521 28.2422C121.021 28.8594 121.701 29.168 122.561 29.168C123.311 29.168 123.92 28.9473 124.389 28.5059C124.857 28.0605 125.092 27.4844 125.092 26.7773V26.625H122.707V25.6992H126.146V26.502ZM129.352 29.2383C129.832 29.2383 130.234 29.0898 130.559 28.793C130.887 28.4922 131.051 28.123 131.051 27.6855V27.1875L129.422 27.2871C129.012 27.3145 128.693 27.4141 128.467 27.5859C128.244 27.7578 128.133 27.9883 128.133 28.2773C128.133 28.5664 128.244 28.7988 128.467 28.9746C128.689 29.1504 128.984 29.2383 129.352 29.2383ZM129.123 30.1055C128.518 30.1055 128.027 29.9375 127.652 29.6016C127.281 29.2656 127.096 28.8242 127.096 28.2773C127.096 27.7539 127.287 27.3359 127.67 27.0234C128.057 26.7109 128.602 26.5352 129.305 26.4961L131.051 26.3965V25.8867C131.051 25.5156 130.934 25.2246 130.699 25.0137C130.465 24.8027 130.137 24.6973 129.715 24.6973C129.328 24.6973 129.014 24.7832 128.771 24.9551C128.529 25.123 128.375 25.3594 128.309 25.6641H127.324C127.359 25.1211 127.594 24.6758 128.027 24.3281C128.465 23.9766 129.035 23.8008 129.738 23.8008C130.453 23.8008 131.02 23.9805 131.438 24.3398C131.859 24.6992 132.07 25.1816 132.07 25.7871V30H131.104V28.9512H131.08C130.896 29.2988 130.627 29.5781 130.271 29.7891C129.916 30 129.533 30.1055 129.123 30.1055ZM133.418 30V21.5449H134.438V30H133.418ZM135.867 30V21.5449H136.887V30H135.867ZM140.707 24.6855C140.234 24.6855 139.842 24.8496 139.529 25.1777C139.221 25.502 139.051 25.9199 139.02 26.4316H142.33C142.318 25.916 142.164 25.4961 141.867 25.1719C141.57 24.8477 141.184 24.6855 140.707 24.6855ZM142.307 28.2539H143.309C143.219 28.793 142.938 29.2363 142.465 29.584C141.996 29.9316 141.432 30.1055 140.771 30.1055C139.9 30.1055 139.215 29.8242 138.715 29.2617C138.215 28.6992 137.965 27.9375 137.965 26.9766C137.965 26.0234 138.215 25.2559 138.715 24.6738C139.219 24.0918 139.889 23.8008 140.725 23.8008C141.545 23.8008 142.193 24.0762 142.67 24.627C143.146 25.1777 143.385 25.916 143.385 26.8418V27.2285H139.014V27.2871C139.014 27.873 139.174 28.3418 139.494 28.6934C139.814 29.0449 140.248 29.2207 140.795 29.2207C141.178 29.2207 141.504 29.1328 141.773 28.957C142.043 28.7812 142.221 28.5469 142.307 28.2539ZM144.416 30V23.9062H145.377V24.9023H145.4C145.502 24.5625 145.684 24.2949 145.945 24.0996C146.211 23.9004 146.521 23.8008 146.877 23.8008C146.959 23.8008 147.096 23.8145 147.287 23.8418V24.832C147.178 24.793 146.996 24.7734 146.742 24.7734C146.348 24.7734 146.031 24.9043 145.793 25.166C145.555 25.4277 145.436 25.7734 145.436 26.2031V30H144.416ZM148.623 32.2793C148.443 32.2793 148.297 32.2676 148.184 32.2441V31.3887C148.277 31.4082 148.41 31.418 148.582 31.418C148.867 31.418 149.096 31.3418 149.268 31.1895C149.439 31.041 149.584 30.7891 149.701 30.4336L149.842 30.0059L147.592 23.9062H148.682L150.369 28.9805H150.387L152.074 23.9062H153.146L150.75 30.4277C150.488 31.1387 150.205 31.625 149.9 31.8867C149.6 32.1484 149.174 32.2793 148.623 32.2793Z" fill="#002ED0"/>
<rect x="18.225" y="7.22492" width="25.55" height="25.55" rx="6.35833" stroke="#002ED0" stroke-width="1.28333"/>
<path fill-rule="evenodd" clip-rule="evenodd" d="M25.5724 12.1379C26.2613 13.8663 28.4306 15.1282 31 15.1282C33.5695 15.1282 35.7388 13.8663 36.4277 12.1379H35.1169C34.9246 12.4307 34.6561 12.712 34.3075 12.9687C33.5043 13.5603 32.3387 13.9615 31 13.9615C29.6613 13.9615 28.4958 13.5603 27.6925 12.9687C27.344 12.712 27.0755 12.4307 26.8831 12.1379H25.5724Z" fill="#002ED0"/>
<circle cx="26.1159" cy="12.1377" r="1.06614" stroke="#002ED0" stroke-width="1.75"/>
<circle cx="35.8861" cy="12.1377" r="1.06614" stroke="#002ED0" stroke-width="1.75"/>
<path d="M36.8193 25.2234C37.0049 25.0018 37.1711 24.6828 37.2249 24.2242L34.567 25.7889H35.8706C36.1357 25.74 36.5268 25.5725 36.8193 25.2234ZM35.5063 27.4528H34.3997C34.6674 27.5681 34.9368 27.636 35.2137 27.636C35.211 27.636 35.2096 27.6361 35.2096 27.636C35.2095 27.6354 35.249 27.6298 35.3313 27.5808C35.3852 27.5488 35.4445 27.5057 35.5063 27.4528Z" stroke="#002ED0" stroke-width="1.16667"/>
<path d="M32.053 25.7777C32.1681 25.3175 34.264 21.5175 35.7919 19.8098C37.4277 21.4096 36.7986 22.7218 36.3132 23.2791C35.8279 23.8363 31.9092 26.3529 32.053 25.7777Z" fill="#002ED0"/>
<path d="M31.477 19.2884C31.3008 20.1027 31.2793 23.7583 31.3692 25.5079C32.1361 24.699 33.972 21.8267 34.1374 20.4927C34.407 18.3177 32.8431 17.9282 31.9623 17.9402C31.6971 18.2377 31.6201 18.6272 31.477 19.2884Z" fill="#002ED0"/>
<path d="M25.1811 25.2119C24.9954 24.9903 24.8292 24.6714 24.7755 24.2128L27.4333 25.7775H26.1298C25.8647 25.7286 25.4735 25.5611 25.1811 25.2119ZM26.4941 27.4414H27.6006C27.333 27.5566 27.0636 27.6245 26.7867 27.6245C26.7894 27.6245 26.7908 27.6246 26.7908 27.6245C26.7908 27.624 26.7513 27.6184 26.669 27.5693C26.6152 27.5373 26.5559 27.4942 26.4941 27.4414Z" stroke="#002ED0" stroke-width="1.16667"/>
<path d="M29.9473 25.7669C29.8323 25.3068 27.7363 21.5067 26.2084 19.7991C24.5727 21.3989 25.2018 22.7111 25.6871 23.2683C26.1725 23.8256 30.0911 26.3422 29.9473 25.7669Z" fill="#002ED0"/>
<path d="M30.5233 19.2774C30.6996 20.0917 30.7211 23.7473 30.6312 25.4969C29.8643 24.688 28.0284 21.8157 27.863 20.4817C27.5933 18.3067 29.1572 17.9172 30.038 17.9292C30.3032 18.2267 30.3802 18.6162 30.5233 19.2774Z" fill="#002ED0"/>
</svg>
