<svg width="96" height="96" viewBox="0 0 96 96" fill="none" xmlns="http://www.w3.org/2000/svg">
<circle cx="48" cy="48" r="48" fill="#002ED0"/>
<path d="M29 20C31.6031 20 33.7134 22.1103 33.7134 24.7134V75.08H29V20V20Z" fill="white"/>
<path d="M53.1221 20V20C53.1221 21.69 51.7521 23.06 50.0621 23.06H48.1777V75.08H43.2332V23.06H41.3488C39.6588 23.06 38.2888 21.69 38.2888 20V20H53.1221Z" fill="white"/>
<path d="M65.6904 61.0229C65.6904 58.8301 65.5461 56.9475 65.2575 55.3753C64.969 53.8031 64.5886 52.4377 64.1164 51.2792C63.6442 50.1 63.1064 49.076 62.503 48.2072C61.8996 47.3383 61.2831 46.5211 60.6535 45.7557C60.0239 44.9903 59.4074 44.2248 58.8041 43.4594C58.2007 42.694 57.6629 41.8251 57.1907 40.8528C56.7185 39.8805 56.3381 38.7634 56.0496 37.5015C55.761 36.2189 55.6167 34.688 55.6167 32.9089V25.4304C55.6167 24.9339 55.7085 24.3754 55.8922 23.7547C56.102 23.1134 56.4824 22.5239 57.0333 21.986C57.5842 21.4274 58.345 20.962 59.3156 20.5896C60.3125 20.1965 61.598 20 63.172 20C64.746 20 66.0183 20.1965 66.9889 20.5896C67.9858 20.962 68.7597 21.4274 69.3106 21.986C69.8615 22.5239 70.2288 23.1134 70.4124 23.7547C70.6223 24.3754 70.7272 24.9339 70.7272 25.4304V34.2955C70.7272 37.0772 68.4722 39.3323 65.6904 39.3323V39.3323V25.4304C65.6904 24.9339 65.6117 24.5305 65.4543 24.2202C65.3231 23.8892 65.1395 23.641 64.9034 23.4755C64.6673 23.2893 64.3918 23.1652 64.077 23.1031C63.7885 23.0203 63.4868 22.979 63.172 22.979C62.8572 22.979 62.5424 23.0203 62.2276 23.1031C61.939 23.1652 61.6767 23.2893 61.4406 23.4755C61.2044 23.641 61.0077 23.8892 60.8503 24.2202C60.7191 24.5305 60.6535 24.9339 60.6535 25.4304V31.4815C60.6535 33.8191 60.9028 35.7741 61.4012 37.3463C61.8996 38.9185 62.5161 40.2943 63.2507 41.4734C64.0114 42.6319 64.8247 43.687 65.6904 44.6386C66.5561 45.5902 67.3562 46.6246 68.0908 47.7417C68.8515 48.8381 69.4811 50.1207 69.9796 51.5895C70.478 53.0376 70.7272 54.8478 70.7272 57.0199V69.122C70.7272 69.3703 70.6879 69.8254 70.6092 70.4874C70.5305 71.1287 70.255 71.7907 69.7828 72.4734C69.3106 73.1561 68.563 73.756 67.5399 74.2732C66.5167 74.811 65.0608 75.08 63.172 75.08C61.2831 75.08 59.8272 74.811 58.8041 74.2732C57.781 73.756 57.0333 73.1561 56.5611 72.4734C56.0889 71.7907 55.8135 71.1287 55.7348 70.4874C55.656 69.8254 55.6167 69.3703 55.6167 69.122V51.2482V51.2482C58.3985 51.2482 60.6535 53.5033 60.6535 56.285V69.122C60.6535 69.3703 60.6667 69.6702 60.6929 70.0219C60.7191 70.3529 60.8109 70.6736 60.9683 70.9839C61.1257 71.2942 61.375 71.5631 61.716 71.7907C62.057 71.9976 62.5424 72.101 63.172 72.101C63.8016 72.101 64.2869 71.9976 64.6279 71.7907C64.969 71.5631 65.2182 71.2942 65.3756 70.9839C65.533 70.6736 65.6248 70.3529 65.651 70.0219C65.6773 69.6702 65.6904 69.3703 65.6904 69.122V61.0229Z" fill="white"/>
</svg>
